<svg xmlns="http://www.w3.org/2000/svg" xmlns:xlink="http://www.w3.org/1999/xlink" width="500" zoomAndPan="magnify" viewBox="0 0 375 374.999991" height="500" preserveAspectRatio="xMidYMid meet" version="1.0"><defs><clipPath id="f330f71af5"><path d="M 0 38 L 375 38 L 375 358.679688 L 0 358.679688 Z M 0 38 " clip-rule="nonzero"/></clipPath><clipPath id="5711a74daa"><path d="M 0 16.679688 L 375 16.679688 L 375 337 L 0 337 Z M 0 16.679688 " clip-rule="nonzero"/></clipPath></defs><g clip-path="url(#f330f71af5)"><path fill="#016401" d="M 155.011719 358.578125 L 0 236.070312 L 0 213.917969 L 52.539062 169.449219 L 133.566406 233.488281 C 146.902344 214.273438 164.640625 190.113281 185.25 165.503906 C 212.421875 133.03125 239.078125 106.390625 264.472656 86.316406 C 280.464844 73.671875 296.285156 63.398438 311.503906 55.773438 C 329.855469 46.601562 347.976562 40.910156 365.363281 38.917969 L 375 101.09375 L 370.90625 123.90625 C 360.003906 125.15625 345.175781 130.671875 316.996094 152.945312 C 296.160156 169.40625 273.679688 191.980469 250.226562 220.007812 C 209.195312 269.039062 180.144531 316.941406 179.851562 317.417969 Z M 155.011719 358.578125 " fill-opacity="1" fill-rule="nonzero"/></g><g clip-path="url(#5711a74daa)"><path fill="#1d9200" d="M 155.011719 336.425781 L 0 213.917969 L 52.539062 147.300781 L 133.566406 211.339844 C 146.902344 192.121094 164.640625 167.960938 185.25 143.355469 C 212.421875 110.882812 239.078125 84.234375 264.472656 64.164062 C 280.464844 51.519531 296.285156 41.246094 311.503906 33.621094 C 329.835938 24.425781 347.957031 18.757812 365.34375 16.765625 L 374.980469 101.09375 C 364.082031 102.339844 345.175781 108.503906 316.996094 130.777344 C 296.160156 147.257812 273.679688 169.828125 250.226562 197.855469 C 209.195312 246.890625 180.144531 294.789062 179.859375 295.261719 Z M 155.011719 336.425781 " fill-opacity="1" fill-rule="nonzero"/></g></svg>