<svg xmlns="http://www.w3.org/2000/svg" xmlns:xlink="http://www.w3.org/1999/xlink" width="500" zoomAndPan="magnify" viewBox="0 0 375 374.999991" height="500" preserveAspectRatio="xMidYMid meet" version="1.0"><defs><clipPath id="20397693af"><path d="M 0 67.5 L 249 67.5 L 249 280 L 0 280 Z M 0 67.5 " clip-rule="nonzero"/></clipPath></defs><g clip-path="url(#20397693af)"><path fill="#1c1a17" d="M 152.21875 222.535156 L 152.21875 154.785156 C 152.21875 137.273438 165.785156 123.070312 182.515625 123.070312 L 248.796875 123.070312 L 248.796875 106.921875 C 248.796875 85.257812 232.003906 67.6875 211.3125 67.6875 L 37.484375 67.6875 C 16.789062 67.6875 0 85.257812 0 106.921875 L 0 190.75 C 0 212.414062 16.789062 229.988281 37.484375 229.988281 L 66.167969 229.988281 L 66.167969 276.308594 C 66.167969 278.863281 69.679688 280.664062 71.5 278.519531 C 85.171875 262.34375 98.828125 246.167969 112.5 229.992188 L 153.09375 229.992188 C 152.539062 227.589844 152.21875 225.109375 152.21875 222.535156 Z M 152.21875 222.535156 " fill-opacity="1" fill-rule="nonzero"/></g><path fill="#1c1a17" d="M 169.417969 165.957031 L 169.417969 241.585938 C 169.417969 257.378906 181.652344 270.1875 196.75 270.1875 L 268.789062 270.1875 C 278.757812 281.980469 288.710938 293.769531 298.675781 305.566406 C 300.003906 307.140625 302.5625 305.820312 302.5625 303.960938 L 302.5625 270.1875 L 347.671875 270.1875 C 362.765625 270.1875 375 257.378906 375 241.585938 L 375 165.957031 C 375 150.160156 362.765625 137.347656 347.671875 137.347656 L 196.75 137.347656 C 181.652344 137.347656 169.417969 150.15625 169.417969 165.957031 Z M 169.417969 165.957031 " fill-opacity="1" fill-rule="nonzero"/></svg>