<svg xmlns="http://www.w3.org/2000/svg" xmlns:xlink="http://www.w3.org/1999/xlink" width="500" zoomAndPan="magnify" viewBox="0 0 375 374.999991" height="500" preserveAspectRatio="xMidYMid meet" version="1.0"><path fill="#000000" d="M 352.660156 0.464844 L 23.496094 0.464844 C 22.738281 0.464844 21.980469 0.5 21.226562 0.574219 C 20.472656 0.648438 19.722656 0.761719 18.980469 0.90625 C 18.234375 1.054688 17.5 1.238281 16.777344 1.460938 C 16.050781 1.679688 15.335938 1.933594 14.636719 2.226562 C 13.9375 2.515625 13.253906 2.839844 12.582031 3.195312 C 11.914062 3.554688 11.265625 3.941406 10.636719 4.363281 C 10.003906 4.785156 9.394531 5.238281 8.808594 5.71875 C 8.222656 6.199219 7.664062 6.707031 7.128906 7.242188 C 6.589844 7.777344 6.082031 8.339844 5.601562 8.925781 C 5.121094 9.511719 4.667969 10.121094 4.25 10.75 C 3.828125 11.382812 3.4375 12.03125 3.082031 12.699219 C 2.722656 13.367188 2.398438 14.050781 2.109375 14.753906 C 1.820312 15.453125 1.5625 16.167969 1.34375 16.890625 C 1.125 17.617188 0.941406 18.351562 0.792969 19.09375 C 0.644531 19.839844 0.53125 20.585938 0.457031 21.34375 C 0.382812 22.097656 0.347656 22.851562 0.347656 23.609375 L 0.347656 352.777344 C 0.347656 353.535156 0.382812 354.292969 0.457031 355.046875 C 0.53125 355.800781 0.644531 356.550781 0.792969 357.292969 C 0.941406 358.039062 1.125 358.773438 1.34375 359.496094 C 1.5625 360.222656 1.820312 360.9375 2.109375 361.636719 C 2.398438 362.335938 2.722656 363.019531 3.082031 363.691406 C 3.4375 364.359375 3.828125 365.007812 4.25 365.636719 C 4.667969 366.269531 5.121094 366.875 5.601562 367.460938 C 6.082031 368.046875 6.589844 368.609375 7.128906 369.144531 C 7.664062 369.683594 8.222656 370.191406 8.808594 370.671875 C 9.394531 371.152344 10.003906 371.601562 10.636719 372.023438 C 11.265625 372.445312 11.914062 372.835938 12.582031 373.191406 C 13.253906 373.550781 13.9375 373.875 14.636719 374.164062 C 15.335938 374.453125 16.050781 374.710938 16.777344 374.929688 C 17.5 375.148438 18.234375 375.332031 18.980469 375.480469 C 19.722656 375.628906 20.472656 375.738281 21.226562 375.8125 C 21.980469 375.890625 22.738281 375.925781 23.496094 375.925781 L 352.660156 375.925781 C 353.421875 375.925781 354.175781 375.890625 354.929688 375.816406 C 355.683594 375.738281 356.433594 375.628906 357.179688 375.480469 C 357.921875 375.332031 358.65625 375.148438 359.382812 374.929688 C 360.105469 374.710938 360.820312 374.453125 361.519531 374.164062 C 362.222656 373.875 362.90625 373.550781 363.574219 373.191406 C 364.242188 372.835938 364.890625 372.445312 365.523438 372.023438 C 366.152344 371.601562 366.761719 371.152344 367.347656 370.671875 C 367.933594 370.191406 368.492188 369.683594 369.03125 369.144531 C 369.566406 368.609375 370.074219 368.046875 370.554688 367.460938 C 371.035156 366.875 371.488281 366.269531 371.910156 365.636719 C 372.332031 365.007812 372.71875 364.359375 373.078125 363.691406 C 373.433594 363.019531 373.757812 362.335938 374.046875 361.636719 C 374.339844 360.9375 374.59375 360.222656 374.8125 359.496094 C 375.035156 358.773438 375.21875 358.039062 375.367188 357.292969 C 375.511719 356.550781 375.625 355.800781 375.699219 355.046875 C 375.773438 354.292969 375.808594 353.535156 375.808594 352.777344 L 375.808594 23.609375 C 375.808594 22.851562 375.773438 22.097656 375.699219 21.34375 C 375.625 20.585938 375.511719 19.839844 375.367188 19.09375 C 375.21875 18.351562 375.035156 17.617188 374.8125 16.890625 C 374.59375 16.167969 374.339844 15.453125 374.046875 14.753906 C 373.757812 14.050781 373.433594 13.367188 373.078125 12.699219 C 372.71875 12.03125 372.332031 11.382812 371.910156 10.75 C 371.488281 10.121094 371.035156 9.511719 370.554688 8.925781 C 370.074219 8.339844 369.566406 7.777344 369.03125 7.242188 C 368.492188 6.707031 367.933594 6.199219 367.347656 5.71875 C 366.761719 5.238281 366.152344 4.785156 365.523438 4.363281 C 364.890625 3.941406 364.242188 3.554688 363.574219 3.195312 C 362.90625 2.839844 362.222656 2.515625 361.519531 2.226562 C 360.820312 1.933594 360.105469 1.679688 359.382812 1.460938 C 358.65625 1.238281 357.921875 1.054688 357.179688 0.90625 C 356.433594 0.761719 355.683594 0.648438 354.929688 0.574219 C 354.175781 0.5 353.421875 0.464844 352.660156 0.464844 Z M 78.933594 300.230469 C 78.054688 300.234375 77.175781 300.195312 76.300781 300.113281 C 75.425781 300.03125 74.554688 299.90625 73.691406 299.738281 C 72.824219 299.570312 71.972656 299.359375 71.128906 299.105469 C 70.285156 298.855469 69.457031 298.5625 68.640625 298.226562 C 67.828125 297.894531 67.03125 297.523438 66.253906 297.109375 C 65.476562 296.699219 64.71875 296.25 63.984375 295.761719 C 63.253906 295.277344 62.542969 294.753906 61.863281 294.199219 C 61.179688 293.644531 60.523438 293.054688 59.902344 292.433594 C 59.277344 291.816406 58.683594 291.164062 58.121094 290.488281 C 57.5625 289.808594 57.035156 289.105469 56.542969 288.375 C 56.050781 287.644531 55.597656 286.890625 55.179688 286.117188 C 54.761719 285.339844 54.382812 284.546875 54.046875 283.734375 C 53.707031 282.921875 53.40625 282.097656 53.148438 281.253906 C 52.890625 280.414062 52.675781 279.5625 52.5 278.699219 C 52.324219 277.835938 52.195312 276.96875 52.105469 276.089844 C 52.015625 275.214844 51.96875 274.335938 51.96875 273.457031 C 51.964844 272.578125 52.003906 271.699219 52.089844 270.824219 C 52.171875 269.945312 52.300781 269.078125 52.46875 268.210938 C 52.640625 267.347656 52.851562 266.496094 53.105469 265.652344 C 53.355469 264.808594 53.652344 263.980469 53.984375 263.167969 C 54.320312 262.351562 54.695312 261.558594 55.109375 260.78125 C 55.519531 260.003906 55.972656 259.246094 56.457031 258.515625 C 56.945312 257.78125 57.46875 257.074219 58.023438 256.390625 C 58.582031 255.710938 59.171875 255.058594 59.792969 254.433594 C 60.414062 253.808594 61.0625 253.21875 61.742188 252.660156 C 62.421875 252.097656 63.125 251.574219 63.855469 251.082031 C 64.589844 250.59375 65.339844 250.140625 66.117188 249.722656 C 66.890625 249.304688 67.6875 248.929688 68.5 248.589844 C 69.3125 248.253906 70.140625 247.953125 70.980469 247.699219 C 71.824219 247.441406 72.675781 247.226562 73.539062 247.050781 C 74.402344 246.878906 75.269531 246.75 76.148438 246.660156 C 77.023438 246.574219 77.902344 246.53125 78.78125 246.527344 C 79.660156 246.527344 80.539062 246.570312 81.414062 246.652344 C 82.292969 246.738281 83.160156 246.867188 84.023438 247.039062 C 84.886719 247.207031 85.742188 247.421875 86.585938 247.675781 C 87.425781 247.929688 88.253906 248.226562 89.070312 248.5625 C 89.882812 248.898438 90.675781 249.273438 91.453125 249.6875 C 92.230469 250.101562 92.984375 250.550781 93.71875 251.039062 C 94.449219 251.527344 95.15625 252.050781 95.835938 252.609375 C 96.519531 253.167969 97.171875 253.757812 97.792969 254.378906 C 98.414062 255 99.007812 255.652344 99.566406 256.332031 C 100.125 257.011719 100.648438 257.71875 101.136719 258.449219 C 101.628906 259.179688 102.078125 259.933594 102.496094 260.710938 C 102.910156 261.488281 103.285156 262.28125 103.625 263.09375 C 103.960938 263.90625 104.257812 264.734375 104.511719 265.578125 C 104.769531 266.421875 104.984375 267.273438 105.15625 268.136719 C 105.328125 269 105.457031 269.871094 105.542969 270.746094 C 105.628906 271.621094 105.671875 272.5 105.671875 273.378906 C 105.671875 274.257812 105.628906 275.132812 105.542969 276.003906 C 105.457031 276.878906 105.328125 277.742188 105.15625 278.605469 C 104.988281 279.464844 104.773438 280.3125 104.519531 281.152344 C 104.265625 281.992188 103.972656 282.816406 103.636719 283.628906 C 103.304688 284.4375 102.929688 285.230469 102.519531 286.003906 C 102.105469 286.78125 101.65625 287.53125 101.171875 288.261719 C 100.683594 288.992188 100.164062 289.695312 99.609375 290.375 C 99.054688 291.054688 98.464844 291.703125 97.847656 292.324219 C 97.230469 292.949219 96.582031 293.535156 95.90625 294.09375 C 95.226562 294.652344 94.527344 295.175781 93.796875 295.664062 C 93.070312 296.15625 92.320312 296.609375 91.546875 297.023438 C 90.773438 297.4375 89.984375 297.816406 89.175781 298.15625 C 88.367188 298.492188 87.542969 298.789062 86.703125 299.046875 C 85.867188 299.304688 85.015625 299.519531 84.15625 299.695312 C 83.296875 299.871094 82.433594 300.003906 81.558594 300.089844 C 80.6875 300.179688 79.8125 300.226562 78.933594 300.230469 Z M 78.933594 215.046875 C 78.050781 215.050781 77.171875 215.011719 76.289062 214.925781 C 75.410156 214.84375 74.539062 214.71875 73.671875 214.546875 C 72.804688 214.378906 71.949219 214.167969 71.101562 213.914062 C 70.253906 213.65625 69.421875 213.363281 68.605469 213.027344 C 67.789062 212.691406 66.992188 212.316406 66.210938 211.898438 C 65.429688 211.484375 64.675781 211.03125 63.9375 210.542969 C 63.203125 210.054688 62.492188 209.527344 61.808594 208.96875 C 61.125 208.410156 60.472656 207.816406 59.847656 207.191406 C 59.222656 206.570312 58.628906 205.914062 58.070312 205.234375 C 57.507812 204.550781 56.984375 203.839844 56.492188 203.105469 C 56 202.371094 55.546875 201.613281 55.132812 200.835938 C 54.71875 200.054688 54.339844 199.257812 54.003906 198.441406 C 53.667969 197.625 53.371094 196.792969 53.113281 195.949219 C 52.859375 195.101562 52.648438 194.246094 52.476562 193.378906 C 52.304688 192.511719 52.179688 191.636719 52.09375 190.757812 C 52.011719 189.878906 51.96875 189 51.972656 188.113281 C 51.972656 187.230469 52.019531 186.351562 52.109375 185.472656 C 52.199219 184.59375 52.332031 183.71875 52.507812 182.855469 C 52.683594 181.988281 52.902344 181.132812 53.160156 180.289062 C 53.421875 179.445312 53.722656 178.617188 54.066406 177.800781 C 54.40625 176.988281 54.789062 176.191406 55.207031 175.414062 C 55.628906 174.636719 56.085938 173.882812 56.582031 173.152344 C 57.078125 172.417969 57.605469 171.714844 58.171875 171.035156 C 58.734375 170.355469 59.332031 169.703125 59.960938 169.082031 C 60.589844 168.464844 61.246094 167.875 61.933594 167.320312 C 62.621094 166.765625 63.332031 166.242188 64.070312 165.757812 C 64.808594 165.273438 65.570312 164.824219 66.351562 164.414062 C 67.136719 164.003906 67.933594 163.632812 68.753906 163.300781 C 69.574219 162.972656 70.40625 162.679688 71.253906 162.433594 C 72.101562 162.183594 72.960938 161.976562 73.828125 161.8125 C 74.695312 161.648438 75.570312 161.527344 76.449219 161.449219 C 77.328125 161.371094 78.210938 161.335938 79.09375 161.34375 C 79.976562 161.351562 80.859375 161.40625 81.738281 161.5 C 82.617188 161.597656 83.488281 161.734375 84.351562 161.917969 C 85.214844 162.101562 86.070312 162.324219 86.910156 162.589844 C 87.753906 162.855469 88.582031 163.164062 89.394531 163.511719 C 90.207031 163.859375 91 164.246094 91.773438 164.671875 C 92.546875 165.097656 93.296875 165.558594 94.027344 166.0625 C 94.753906 166.5625 95.457031 167.09375 96.132812 167.664062 C 96.804688 168.234375 97.453125 168.835938 98.066406 169.46875 C 98.683594 170.101562 99.269531 170.765625 99.820312 171.453125 C 100.371094 172.144531 100.882812 172.863281 101.363281 173.601562 C 101.84375 174.34375 102.289062 175.109375 102.691406 175.894531 C 103.097656 176.679688 103.460938 177.480469 103.785156 178.304688 C 104.113281 179.125 104.398438 179.960938 104.640625 180.808594 C 104.882812 181.660156 105.082031 182.519531 105.242188 183.386719 C 105.398438 184.257812 105.515625 185.132812 105.585938 186.011719 C 105.660156 186.890625 105.6875 187.773438 105.671875 188.65625 C 105.65625 189.523438 105.597656 190.390625 105.5 191.25 C 105.402344 192.113281 105.261719 192.96875 105.082031 193.816406 C 104.898438 194.664062 104.675781 195.5 104.414062 196.328125 C 104.152344 197.15625 103.847656 197.96875 103.507812 198.765625 C 103.164062 199.5625 102.785156 200.339844 102.371094 201.101562 C 101.953125 201.863281 101.5 202.601562 101.011719 203.316406 C 100.523438 204.035156 100 204.726562 99.445312 205.390625 C 98.890625 206.058594 98.304688 206.695312 97.6875 207.304688 C 97.070312 207.914062 96.421875 208.492188 95.75 209.039062 C 95.078125 209.585938 94.378906 210.097656 93.65625 210.578125 C 92.933594 211.058594 92.1875 211.5 91.421875 211.90625 C 90.65625 212.316406 89.871094 212.683594 89.070312 213.015625 C 88.269531 213.347656 87.453125 213.636719 86.621094 213.890625 C 85.792969 214.140625 84.953125 214.351562 84.101562 214.523438 C 83.25 214.691406 82.394531 214.820312 81.53125 214.910156 C 80.667969 214.996094 79.800781 215.042969 78.933594 215.046875 Z M 78.933594 129.859375 C 78.054688 129.863281 77.175781 129.824219 76.300781 129.742188 C 75.425781 129.660156 74.554688 129.535156 73.691406 129.367188 C 72.824219 129.199219 71.972656 128.988281 71.128906 128.738281 C 70.285156 128.484375 69.457031 128.191406 68.640625 127.859375 C 67.828125 127.523438 67.03125 127.152344 66.253906 126.738281 C 65.476562 126.328125 64.71875 125.878906 63.984375 125.390625 C 63.253906 124.90625 62.542969 124.382812 61.863281 123.828125 C 61.179688 123.273438 60.523438 122.683594 59.902344 122.066406 C 59.277344 121.445312 58.683594 120.796875 58.121094 120.117188 C 57.5625 119.4375 57.035156 118.734375 56.542969 118.003906 C 56.050781 117.273438 55.597656 116.519531 55.179688 115.746094 C 54.761719 114.972656 54.382812 114.175781 54.046875 113.367188 C 53.707031 112.554688 53.40625 111.726562 53.148438 110.886719 C 52.890625 110.042969 52.675781 109.191406 52.5 108.328125 C 52.324219 107.464844 52.195312 106.597656 52.105469 105.71875 C 52.015625 104.84375 51.96875 103.96875 51.96875 103.085938 C 51.964844 102.207031 52.003906 101.328125 52.089844 100.453125 C 52.171875 99.574219 52.300781 98.707031 52.46875 97.84375 C 52.640625 96.976562 52.851562 96.125 53.105469 95.28125 C 53.355469 94.4375 53.652344 93.609375 53.984375 92.796875 C 54.320312 91.980469 54.695312 91.1875 55.109375 90.410156 C 55.519531 89.632812 55.972656 88.875 56.457031 88.144531 C 56.945312 87.410156 57.46875 86.703125 58.023438 86.023438 C 58.582031 85.339844 59.171875 84.6875 59.792969 84.0625 C 60.414062 83.441406 61.0625 82.847656 61.742188 82.289062 C 62.421875 81.726562 63.125 81.203125 63.855469 80.710938 C 64.589844 80.222656 65.339844 79.769531 66.117188 79.351562 C 66.890625 78.9375 67.6875 78.558594 68.5 78.21875 C 69.3125 77.882812 70.140625 77.585938 70.980469 77.328125 C 71.824219 77.070312 72.675781 76.855469 73.539062 76.683594 C 74.402344 76.507812 75.269531 76.378906 76.148438 76.289062 C 77.023438 76.203125 77.902344 76.160156 78.78125 76.15625 C 79.660156 76.15625 80.539062 76.199219 81.414062 76.285156 C 82.292969 76.367188 83.160156 76.496094 84.023438 76.667969 C 84.886719 76.835938 85.742188 77.050781 86.585938 77.304688 C 87.425781 77.558594 88.253906 77.855469 89.070312 78.191406 C 89.882812 78.527344 90.675781 78.902344 91.453125 79.316406 C 92.230469 79.730469 92.984375 80.179688 93.71875 80.667969 C 94.449219 81.15625 95.15625 81.679688 95.835938 82.238281 C 96.519531 82.796875 97.171875 83.386719 97.792969 84.007812 C 98.414062 84.628906 99.007812 85.28125 99.566406 85.960938 C 100.125 86.640625 100.648438 87.347656 101.136719 88.078125 C 101.628906 88.8125 102.078125 89.566406 102.496094 90.339844 C 102.910156 91.117188 103.285156 91.910156 103.625 92.726562 C 103.960938 93.539062 104.257812 94.367188 104.511719 95.207031 C 104.769531 96.050781 104.984375 96.902344 105.15625 97.765625 C 105.328125 98.628906 105.457031 99.5 105.542969 100.375 C 105.628906 101.25 105.671875 102.128906 105.671875 103.007812 C 105.671875 103.886719 105.628906 104.761719 105.542969 105.632812 C 105.457031 106.507812 105.328125 107.375 105.15625 108.234375 C 104.988281 109.09375 104.773438 109.945312 104.519531 110.78125 C 104.265625 111.621094 103.972656 112.449219 103.636719 113.257812 C 103.304688 114.070312 102.929688 114.859375 102.519531 115.636719 C 102.105469 116.410156 101.65625 117.160156 101.171875 117.890625 C 100.683594 118.621094 100.164062 119.324219 99.609375 120.003906 C 99.054688 120.683594 98.464844 121.335938 97.847656 121.957031 C 97.230469 122.578125 96.582031 123.167969 95.90625 123.726562 C 95.226562 124.28125 94.527344 124.804688 93.796875 125.296875 C 93.070312 125.785156 92.320312 126.238281 91.546875 126.652344 C 90.773438 127.070312 89.984375 127.445312 89.175781 127.785156 C 88.367188 128.121094 87.542969 128.421875 86.703125 128.675781 C 85.867188 128.933594 85.015625 129.152344 84.15625 129.324219 C 83.296875 129.5 82.433594 129.632812 81.558594 129.722656 C 80.6875 129.8125 79.8125 129.855469 78.933594 129.859375 Z M 306.945312 291.898438 L 144.90625 291.898438 C 144.339844 291.898438 143.773438 291.871094 143.207031 291.816406 C 142.640625 291.757812 142.078125 291.675781 141.519531 291.566406 C 140.960938 291.453125 140.410156 291.316406 139.867188 291.152344 C 139.324219 290.984375 138.789062 290.792969 138.261719 290.578125 C 137.738281 290.359375 137.226562 290.117188 136.722656 289.847656 C 136.222656 289.582031 135.734375 289.289062 135.261719 288.972656 C 134.789062 288.65625 134.332031 288.316406 133.894531 287.957031 C 133.453125 287.597656 133.035156 287.214844 132.632812 286.8125 C 132.230469 286.410156 131.847656 285.992188 131.488281 285.550781 C 131.125 285.109375 130.789062 284.65625 130.472656 284.183594 C 130.15625 283.710938 129.863281 283.222656 129.597656 282.722656 C 129.328125 282.21875 129.085938 281.707031 128.867188 281.179688 C 128.648438 280.65625 128.457031 280.121094 128.292969 279.578125 C 128.128906 279.03125 127.992188 278.480469 127.878906 277.925781 C 127.769531 277.367188 127.6875 276.804688 127.628906 276.238281 C 127.574219 275.671875 127.546875 275.105469 127.546875 274.535156 C 127.546875 273.96875 127.574219 273.402344 127.628906 272.835938 C 127.6875 272.269531 127.769531 271.707031 127.878906 271.148438 C 127.992188 270.59375 128.128906 270.042969 128.292969 269.496094 C 128.457031 268.953125 128.648438 268.417969 128.867188 267.894531 C 129.085938 267.367188 129.328125 266.855469 129.597656 266.351562 C 129.863281 265.851562 130.15625 265.363281 130.472656 264.890625 C 130.789062 264.417969 131.125 263.960938 131.488281 263.523438 C 131.847656 263.082031 132.230469 262.664062 132.632812 262.261719 C 133.035156 261.859375 133.453125 261.476562 133.894531 261.117188 C 134.332031 260.757812 134.789062 260.417969 135.261719 260.101562 C 135.734375 259.785156 136.222656 259.492188 136.722656 259.226562 C 137.226562 258.957031 137.738281 258.714844 138.261719 258.496094 C 138.789062 258.28125 139.324219 258.089844 139.867188 257.921875 C 140.410156 257.757812 140.960938 257.621094 141.519531 257.507812 C 142.078125 257.398438 142.640625 257.316406 143.207031 257.257812 C 143.773438 257.203125 144.339844 257.175781 144.90625 257.175781 L 306.945312 257.175781 C 307.511719 257.175781 308.082031 257.203125 308.644531 257.257812 C 309.210938 257.316406 309.773438 257.398438 310.332031 257.507812 C 310.890625 257.621094 311.441406 257.757812 311.984375 257.921875 C 312.527344 258.089844 313.0625 258.28125 313.589844 258.496094 C 314.113281 258.714844 314.628906 258.957031 315.128906 259.226562 C 315.628906 259.492188 316.117188 259.785156 316.589844 260.101562 C 317.0625 260.417969 317.519531 260.757812 317.957031 261.117188 C 318.398438 261.476562 318.820312 261.859375 319.21875 262.261719 C 319.621094 262.664062 320.003906 263.082031 320.363281 263.523438 C 320.726562 263.960938 321.0625 264.417969 321.378906 264.890625 C 321.695312 265.363281 321.988281 265.851562 322.253906 266.351562 C 322.523438 266.855469 322.765625 267.367188 322.984375 267.894531 C 323.203125 268.417969 323.394531 268.953125 323.558594 269.496094 C 323.722656 270.042969 323.859375 270.59375 323.972656 271.148438 C 324.082031 271.707031 324.167969 272.269531 324.222656 272.835938 C 324.277344 273.402344 324.304688 273.96875 324.304688 274.535156 C 324.304688 275.105469 324.277344 275.671875 324.222656 276.238281 C 324.167969 276.804688 324.082031 277.367188 323.972656 277.925781 C 323.859375 278.480469 323.722656 279.03125 323.558594 279.578125 C 323.394531 280.121094 323.203125 280.65625 322.984375 281.179688 C 322.765625 281.707031 322.523438 282.21875 322.253906 282.722656 C 321.988281 283.222656 321.695312 283.710938 321.378906 284.183594 C 321.0625 284.65625 320.726562 285.109375 320.363281 285.550781 C 320.003906 285.992188 319.621094 286.410156 319.21875 286.8125 C 318.820312 287.214844 318.398438 287.597656 317.957031 287.957031 C 317.519531 288.316406 317.0625 288.65625 316.589844 288.972656 C 316.117188 289.289062 315.628906 289.582031 315.128906 289.847656 C 314.628906 290.117188 314.113281 290.359375 313.589844 290.578125 C 313.0625 290.792969 312.527344 290.984375 311.984375 291.152344 C 311.441406 291.316406 310.890625 291.453125 310.332031 291.566406 C 309.773438 291.675781 309.210938 291.757812 308.644531 291.816406 C 308.082031 291.871094 307.511719 291.898438 306.945312 291.898438 Z M 306.945312 206.714844 L 144.90625 206.714844 C 144.339844 206.710938 143.773438 206.683594 143.207031 206.628906 C 142.640625 206.570312 142.082031 206.488281 141.523438 206.375 C 140.964844 206.265625 140.414062 206.125 139.871094 205.960938 C 139.328125 205.796875 138.792969 205.605469 138.269531 205.386719 C 137.742188 205.167969 137.230469 204.925781 136.730469 204.65625 C 136.230469 204.390625 135.742188 204.097656 135.269531 203.78125 C 134.796875 203.464844 134.34375 203.125 133.902344 202.765625 C 133.464844 202.40625 133.042969 202.023438 132.640625 201.621094 C 132.242188 201.21875 131.859375 200.800781 131.5 200.359375 C 131.140625 199.921875 130.800781 199.464844 130.484375 198.992188 C 130.171875 198.519531 129.878906 198.03125 129.609375 197.53125 C 129.34375 197.03125 129.101562 196.515625 128.882812 195.992188 C 128.664062 195.464844 128.476562 194.933594 128.308594 194.386719 C 128.144531 193.84375 128.007812 193.292969 127.894531 192.738281 C 127.785156 192.179688 127.703125 191.617188 127.648438 191.050781 C 127.589844 190.488281 127.5625 189.921875 127.5625 189.351562 C 127.5625 188.785156 127.589844 188.214844 127.648438 187.652344 C 127.703125 187.085938 127.785156 186.523438 127.894531 185.96875 C 128.007812 185.410156 128.144531 184.859375 128.308594 184.316406 C 128.476562 183.769531 128.664062 183.238281 128.882812 182.710938 C 129.101562 182.1875 129.34375 181.671875 129.609375 181.171875 C 129.878906 180.671875 130.171875 180.183594 130.484375 179.710938 C 130.800781 179.238281 131.140625 178.785156 131.5 178.34375 C 131.859375 177.90625 132.242188 177.484375 132.640625 177.082031 C 133.042969 176.679688 133.464844 176.296875 133.902344 175.9375 C 134.34375 175.578125 134.796875 175.238281 135.269531 174.921875 C 135.742188 174.605469 136.230469 174.3125 136.730469 174.046875 C 137.230469 173.777344 137.742188 173.535156 138.269531 173.316406 C 138.792969 173.097656 139.328125 172.90625 139.871094 172.742188 C 140.414062 172.578125 140.964844 172.4375 141.523438 172.328125 C 142.082031 172.214844 142.640625 172.132812 143.207031 172.074219 C 143.773438 172.019531 144.339844 171.992188 144.90625 171.992188 L 306.945312 171.992188 C 307.511719 171.992188 308.078125 172.019531 308.644531 172.074219 C 309.210938 172.132812 309.773438 172.214844 310.328125 172.328125 C 310.886719 172.4375 311.4375 172.578125 311.980469 172.742188 C 312.523438 172.90625 313.058594 173.097656 313.582031 173.316406 C 314.109375 173.535156 314.621094 173.777344 315.121094 174.046875 C 315.621094 174.3125 316.109375 174.605469 316.582031 174.921875 C 317.054688 175.238281 317.507812 175.578125 317.949219 175.9375 C 318.386719 176.296875 318.808594 176.679688 319.210938 177.082031 C 319.609375 177.484375 319.992188 177.90625 320.351562 178.34375 C 320.710938 178.785156 321.050781 179.238281 321.367188 179.710938 C 321.683594 180.183594 321.972656 180.671875 322.242188 181.171875 C 322.507812 181.671875 322.75 182.1875 322.96875 182.710938 C 323.1875 183.238281 323.378906 183.769531 323.542969 184.316406 C 323.707031 184.859375 323.84375 185.410156 323.957031 185.96875 C 324.066406 186.523438 324.148438 187.085938 324.207031 187.652344 C 324.261719 188.214844 324.289062 188.785156 324.289062 189.351562 C 324.289062 189.921875 324.261719 190.488281 324.207031 191.050781 C 324.148438 191.617188 324.066406 192.179688 323.957031 192.738281 C 323.84375 193.292969 323.707031 193.84375 323.542969 194.386719 C 323.378906 194.933594 323.1875 195.464844 322.96875 195.992188 C 322.75 196.515625 322.507812 197.03125 322.242188 197.53125 C 321.972656 198.03125 321.683594 198.519531 321.367188 198.992188 C 321.050781 199.464844 320.710938 199.921875 320.351562 200.359375 C 319.992188 200.800781 319.609375 201.21875 319.210938 201.621094 C 318.808594 202.023438 318.386719 202.40625 317.949219 202.765625 C 317.507812 203.125 317.054688 203.464844 316.582031 203.78125 C 316.109375 204.097656 315.621094 204.390625 315.121094 204.65625 C 314.621094 204.925781 314.109375 205.167969 313.582031 205.386719 C 313.058594 205.605469 312.523438 205.796875 311.980469 205.960938 C 311.4375 206.125 310.886719 206.265625 310.328125 206.375 C 309.773438 206.488281 309.210938 206.570312 308.644531 206.628906 C 308.078125 206.683594 307.511719 206.710938 306.945312 206.714844 Z M 306.945312 121.527344 L 144.90625 121.527344 C 144.339844 121.527344 143.773438 121.5 143.207031 121.445312 C 142.640625 121.386719 142.078125 121.304688 141.519531 121.195312 C 140.960938 121.082031 140.410156 120.945312 139.867188 120.78125 C 139.324219 120.613281 138.789062 120.421875 138.261719 120.207031 C 137.738281 119.988281 137.226562 119.746094 136.722656 119.476562 C 136.222656 119.210938 135.734375 118.917969 135.261719 118.601562 C 134.789062 118.285156 134.332031 117.949219 133.894531 117.585938 C 133.453125 117.226562 133.035156 116.84375 132.632812 116.441406 C 132.230469 116.039062 131.847656 115.621094 131.488281 115.179688 C 131.125 114.742188 130.789062 114.285156 130.472656 113.8125 C 130.15625 113.339844 129.863281 112.851562 129.597656 112.351562 C 129.328125 111.847656 129.085938 111.335938 128.867188 110.808594 C 128.648438 110.285156 128.457031 109.75 128.292969 109.207031 C 128.128906 108.664062 127.992188 108.109375 127.878906 107.554688 C 127.769531 106.996094 127.6875 106.433594 127.628906 105.867188 C 127.574219 105.300781 127.546875 104.734375 127.546875 104.167969 C 127.546875 103.597656 127.574219 103.03125 127.628906 102.464844 C 127.6875 101.898438 127.769531 101.335938 127.878906 100.78125 C 127.992188 100.222656 128.128906 99.671875 128.292969 99.128906 C 128.457031 98.582031 128.648438 98.046875 128.867188 97.523438 C 129.085938 96.996094 129.328125 96.484375 129.597656 95.984375 C 129.863281 95.480469 130.15625 94.992188 130.472656 94.519531 C 130.789062 94.046875 131.125 93.59375 131.488281 93.152344 C 131.847656 92.714844 132.230469 92.292969 132.632812 91.890625 C 133.035156 91.488281 133.453125 91.105469 133.894531 90.746094 C 134.332031 90.386719 134.789062 90.046875 135.261719 89.730469 C 135.734375 89.414062 136.222656 89.125 136.722656 88.855469 C 137.226562 88.585938 137.738281 88.34375 138.261719 88.128906 C 138.789062 87.910156 139.324219 87.71875 139.867188 87.554688 C 140.410156 87.386719 140.960938 87.25 141.519531 87.140625 C 142.078125 87.027344 142.640625 86.945312 143.207031 86.890625 C 143.773438 86.832031 144.339844 86.804688 144.90625 86.804688 L 306.945312 86.804688 C 307.511719 86.804688 308.082031 86.832031 308.644531 86.890625 C 309.210938 86.945312 309.773438 87.027344 310.332031 87.140625 C 310.890625 87.25 311.441406 87.386719 311.984375 87.554688 C 312.527344 87.71875 313.0625 87.910156 313.589844 88.128906 C 314.113281 88.34375 314.628906 88.585938 315.128906 88.855469 C 315.628906 89.125 316.117188 89.414062 316.589844 89.730469 C 317.0625 90.046875 317.519531 90.386719 317.957031 90.746094 C 318.398438 91.105469 318.820312 91.488281 319.21875 91.890625 C 319.621094 92.292969 320.003906 92.714844 320.363281 93.152344 C 320.726562 93.59375 321.0625 94.046875 321.378906 94.519531 C 321.695312 94.992188 321.988281 95.480469 322.253906 95.984375 C 322.523438 96.484375 322.765625 96.996094 322.984375 97.523438 C 323.203125 98.046875 323.394531 98.582031 323.558594 99.125 C 323.722656 99.671875 323.859375 100.222656 323.972656 100.78125 C 324.082031 101.335938 324.167969 101.898438 324.222656 102.464844 C 324.277344 103.03125 324.304688 103.597656 324.304688 104.167969 C 324.304688 104.734375 324.277344 105.300781 324.222656 105.867188 C 324.167969 106.433594 324.082031 106.996094 323.972656 107.554688 C 323.859375 108.109375 323.722656 108.664062 323.558594 109.207031 C 323.394531 109.75 323.203125 110.285156 322.984375 110.808594 C 322.765625 111.335938 322.523438 111.847656 322.253906 112.351562 C 321.988281 112.851562 321.695312 113.339844 321.378906 113.8125 C 321.0625 114.285156 320.726562 114.742188 320.363281 115.179688 C 320.003906 115.621094 319.621094 116.039062 319.21875 116.441406 C 318.820312 116.84375 318.398438 117.226562 317.957031 117.585938 C 317.519531 117.949219 317.0625 118.285156 316.589844 118.601562 C 316.117188 118.917969 315.628906 119.210938 315.128906 119.476562 C 314.628906 119.746094 314.113281 119.988281 313.589844 120.207031 C 313.0625 120.421875 312.527344 120.613281 311.984375 120.78125 C 311.441406 120.945312 310.890625 121.082031 310.332031 121.195312 C 309.773438 121.304688 309.210938 121.386719 308.644531 121.445312 C 308.082031 121.5 307.511719 121.527344 306.945312 121.527344 Z M 306.945312 121.527344 " fill-opacity="1" fill-rule="nonzero"/></svg>