<svg xmlns="http://www.w3.org/2000/svg" xmlns:xlink="http://www.w3.org/1999/xlink" width="500" zoomAndPan="magnify" viewBox="0 0 375 374.999991" height="500" preserveAspectRatio="xMidYMid meet" version="1.0"><defs><clipPath id="e8f3922ea3"><path d="M 69.894531 0 L 291.585938 0 L 291.585938 326 L 69.894531 326 Z M 69.894531 0 " clip-rule="nonzero"/></clipPath><clipPath id="f233c9ee36"><path d="M 85.179688 338.375 L 276.542969 338.375 L 276.542969 375 L 85.179688 375 Z M 85.179688 338.375 " clip-rule="nonzero"/></clipPath></defs><path fill="#241f21" d="M 180.742188 53.121094 C 155.5625 53.121094 135.082031 73.574219 135.082031 98.710938 C 135.082031 123.851562 155.5625 144.304688 180.742188 144.304688 C 205.917969 144.304688 226.398438 123.851562 226.398438 98.710938 C 226.398438 73.574219 205.917969 53.121094 180.742188 53.121094 Z M 180.742188 154.074219 C 150.171875 154.074219 125.296875 129.238281 125.296875 98.710938 C 125.296875 68.1875 150.171875 43.351562 180.742188 43.351562 C 211.3125 43.351562 236.183594 68.1875 236.183594 98.710938 C 236.183594 129.238281 211.3125 154.074219 180.742188 154.074219 " fill-opacity="1" fill-rule="nonzero"/><g clip-path="url(#e8f3922ea3)"><path fill="#241f21" d="M 180.742188 10.078125 C 125.183594 10.078125 79.984375 55.207031 79.984375 110.683594 C 79.984375 194.914062 162.246094 291.355469 180.742188 311.96875 C 199.234375 291.355469 281.5 194.914062 281.5 110.683594 C 281.5 55.207031 236.300781 10.078125 180.742188 10.078125 Z M 180.742188 325.824219 L 177.640625 323.410156 C 176.511719 322.53125 149.660156 293.722656 123.625 254.335938 C 108.089844 230.828125 95.703125 207.929688 86.804688 186.28125 C 75.585938 158.980469 69.894531 133.546875 69.894531 110.683594 C 69.894531 81.121094 81.425781 53.328125 102.359375 32.421875 C 123.296875 11.515625 151.132812 0.00390625 180.742188 0.00390625 C 210.347656 0.00390625 238.183594 11.515625 259.121094 32.421875 C 280.054688 53.328125 291.585938 81.121094 291.585938 110.683594 C 291.585938 133.546875 285.898438 158.980469 274.679688 186.28125 C 265.78125 207.929688 253.390625 230.828125 237.855469 254.335938 C 211.824219 293.722656 184.96875 322.53125 183.839844 323.410156 L 180.742188 325.824219 " fill-opacity="1" fill-rule="nonzero"/></g><g clip-path="url(#f233c9ee36)"><path fill="#241f21" d="M 247.664062 338.699219 C 254.183594 341.210938 257.914062 344.121094 257.914062 347.226562 C 257.914062 356.671875 223.359375 364.332031 180.742188 364.332031 C 138.121094 364.332031 103.570312 356.671875 103.570312 347.226562 C 103.570312 344.121094 107.300781 341.210938 113.816406 338.699219 C 96.152344 342.542969 85.1875 347.898438 85.1875 353.816406 C 85.1875 365.515625 127.96875 375 180.742188 375 C 233.515625 375 276.292969 365.515625 276.292969 353.816406 C 276.292969 347.898438 265.332031 342.542969 247.664062 338.699219 " fill-opacity="1" fill-rule="nonzero"/></g><path fill="#241f21" d="M 214.339844 336.863281 C 217.613281 338.125 219.484375 339.585938 219.484375 341.144531 C 219.484375 345.886719 202.136719 349.734375 180.742188 349.734375 C 159.34375 349.734375 142 345.886719 142 341.144531 C 142 339.585938 143.871094 338.125 147.144531 336.863281 C 138.273438 338.796875 132.769531 341.480469 132.769531 344.453125 C 132.769531 350.328125 154.25 355.085938 180.742188 355.085938 C 207.234375 355.085938 228.710938 350.328125 228.710938 344.453125 C 228.710938 341.480469 223.207031 338.796875 214.339844 336.863281 " fill-opacity="1" fill-rule="nonzero"/></svg>