<svg xmlns="http://www.w3.org/2000/svg" xmlns:xlink="http://www.w3.org/1999/xlink" width="500" zoomAndPan="magnify" viewBox="0 0 375 374.999991" height="500" preserveAspectRatio="xMidYMid meet" version="1.0"><defs><g/></defs><g fill="#00c4cc" fill-opacity="1"><g transform="translate(105.165728, 160.245842)"><g><path d="M 0.242188 42.628906 C 3.191406 42.265625 6.113281 40.9375 9.15625 38.445312 C 12.121094 36.050781 15.011719 33.050781 17.816406 29.355469 C 20.546875 25.757812 23.308594 21.714844 26.015625 17.234375 C 28.648438 12.855469 31.03125 8.59375 33.316406 4.257812 C 35.601562 -0.078125 37.65625 -4.121094 39.5625 -7.972656 C 41.390625 -11.722656 42.945312 -14.824219 44.230469 -17.273438 L 63.921875 -54.785156 L 51.683594 -53.273438 C 51.019531 -52.222656 50.039062 -50.867188 48.671875 -49.113281 C 47.300781 -47.355469 45.777344 -45.40625 44.082031 -43.433594 C 42.3125 -41.363281 40.441406 -39.371094 38.398438 -37.355469 C 36.355469 -35.339844 34.378906 -33.507812 32.371094 -31.9375 C 30.285156 -30.269531 28.40625 -29.070312 26.570312 -28.226562 C 24.734375 -27.382812 23.257812 -27.199219 21.96875 -27.65625 C 20.6875 -28.027344 19.800781 -28.800781 19.304688 -29.972656 C 18.804688 -31.144531 18.449219 -32.597656 18.410156 -34.355469 C 18.292969 -36.015625 18.425781 -37.796875 18.71875 -39.683594 C 19.015625 -41.570312 19.484375 -43.480469 19.957031 -45.390625 C 20.433594 -47.210938 20.9375 -48.859375 21.449219 -50.421875 C 21.960938 -51.984375 22.417969 -53.273438 22.832031 -54.207031 C 24.445312 -58.285156 26.585938 -62.339844 29.175781 -66.359375 C 31.675781 -70.371094 34.667969 -74 37.949219 -77.402344 C 41.242188 -80.71875 44.867188 -83.457031 48.832031 -85.625 C 52.796875 -87.789062 57.136719 -89.027344 61.671875 -89.414062 C 63.605469 -89.476562 64.808594 -89.007812 65.457031 -88.027344 C 66.117188 -86.964844 66.183594 -85.738281 65.734375 -84.363281 C 65.40625 -83.441406 64.898438 -82.582031 64.125 -81.695312 C 63.355469 -80.804688 62.472656 -80.082031 61.398438 -79.507812 C 60.246094 -78.835938 58.902344 -78.316406 57.445312 -77.960938 C 55.90625 -77.59375 54.246094 -77.476562 52.457031 -77.695312 C 52.136719 -75.984375 52.222656 -74.582031 52.613281 -73.574219 C 52.914062 -72.554688 53.457031 -71.738281 54.136719 -71.207031 C 54.746094 -70.574219 55.503906 -70.140625 56.40625 -69.988281 C 57.21875 -69.824219 58.011719 -69.832031 58.878906 -69.941406 C 60.09375 -70.089844 61.429688 -70.695312 62.90625 -71.585938 C 64.296875 -72.460938 65.644531 -73.683594 66.882812 -75.070312 C 68.046875 -76.363281 69.101562 -77.8125 69.960938 -79.417969 C 70.828125 -80.9375 71.429688 -82.507812 71.765625 -84.046875 C 71.984375 -85.132812 71.933594 -86.273438 71.71875 -87.304688 C 71.414062 -88.324219 70.941406 -89.324219 70.136719 -90.105469 C 69.335938 -90.886719 68.207031 -91.453125 66.746094 -91.890625 C 65.28125 -92.324219 63.402344 -92.535156 61.199219 -92.527344 C 55.582031 -92.363281 50.175781 -91.164062 45.148438 -89.046875 C 40.132812 -86.839844 35.363281 -84.046875 30.867188 -80.496094 C 26.292969 -76.847656 22.132812 -72.71875 18.46875 -68.121094 C 14.816406 -63.441406 11.53125 -58.628906 8.792969 -53.707031 C 4.679688 -46.324219 1.914062 -39.460938 0.386719 -33.277344 C -1.144531 -27.09375 -1.617188 -21.660156 -1.148438 -17.132812 C -0.753906 -12.511719 0.492188 -8.875 2.582031 -6.222656 C 4.671875 -3.574219 7.304688 -2.222656 10.496094 -2.089844 C 12.449219 -1.976562 14.890625 -2.898438 17.734375 -4.835938 C 20.582031 -6.773438 23.589844 -9.523438 26.785156 -12.914062 C 29.894531 -16.296875 32.9375 -20.199219 36.082031 -24.730469 C 39.136719 -29.25 41.886719 -34.085938 44.347656 -39.148438 C 43.824219 -37.671875 43.085938 -35.816406 41.972656 -33.390625 C 40.863281 -30.960938 39.613281 -28.25 38.054688 -25.148438 C 36.511719 -21.960938 34.714844 -18.65625 32.84375 -15.25 C 30.984375 -11.757812 29.027344 -8.34375 26.980469 -4.917969 C 24.859375 -1.394531 22.71875 1.953125 20.640625 5.117188 C 18.476562 8.296875 16.355469 11.113281 14.28125 13.574219 C 12.128906 16.128906 10.171875 18.136719 8.25 19.695312 C 6.328125 21.253906 4.664062 22.074219 3.101562 22.269531 C 0.671875 22.570312 -1.410156 22.121094 -2.980469 20.816406 C -4.554688 19.511719 -5.503906 17.515625 -5.664062 14.800781 C -7.945312 16.316406 -9.75 18.128906 -10.914062 20.121094 C -12.164062 22.128906 -12.96875 24.167969 -13.320312 26.324219 C -13.757812 28.492188 -13.660156 30.6875 -13.230469 32.75 C -12.800781 34.808594 -11.957031 36.644531 -10.710938 38.167969 C -9.542969 39.785156 -8.066406 41.011719 -6.203125 41.839844 C -4.335938 42.667969 -2.191406 42.929688 0.242188 42.628906 Z M 0.242188 42.628906 "/></g></g></g><g fill="#00c4cc" fill-opacity="1"><g transform="translate(154.910885, 154.101895)"><g><path d="M 5.9375 -1.175781 C 8.085938 -0.910156 10.167969 -1.167969 12.273438 -1.957031 C 14.378906 -2.746094 16.453125 -3.796875 18.476562 -5.277344 C 20.417969 -6.664062 22.246094 -8.300781 24.046875 -10.109375 C 25.851562 -11.917969 27.546875 -13.890625 29.046875 -16.015625 C 30.472656 -18.042969 31.800781 -20.144531 33.039062 -22.238281 C 34.191406 -24.320312 35.191406 -26.207031 36.019531 -28.070312 C 32.5625 -23.238281 29.292969 -19.746094 26.382812 -17.625 C 23.46875 -15.503906 20.953125 -14.488281 18.910156 -14.585938 C 16.796875 -14.589844 15.429688 -15.65625 14.628906 -17.847656 C 13.839844 -19.953125 13.910156 -22.960938 14.851562 -26.777344 C 15.089844 -27.6875 15.328125 -28.601562 15.570312 -29.511719 C 15.820312 -30.335938 16.160156 -31.171875 16.496094 -32.003906 C 16.363281 -30.226562 16.773438 -29.042969 17.640625 -28.445312 C 18.421875 -27.835938 19.515625 -27.53125 20.820312 -27.691406 L 20.589844 -27.398438 C 23.042969 -27.527344 25.386719 -28.519531 27.464844 -30.273438 C 29.546875 -31.941406 31.148438 -33.992188 32.441406 -36.355469 C 32.941406 -37.296875 33.398438 -38.589844 33.902344 -40.238281 C 34.402344 -41.886719 34.652344 -43.414062 34.636719 -45 C 34.625 -46.496094 34.203125 -47.765625 33.542969 -48.832031 C 32.808594 -49.796875 31.519531 -50.253906 29.761719 -50.214844 C 26.796875 -49.9375 23.921875 -48.964844 21.292969 -47.40625 C 18.664062 -45.847656 16.167969 -43.953125 13.972656 -41.742188 C 11.699219 -39.433594 9.710938 -36.984375 7.917969 -34.382812 C 6.132812 -31.695312 4.761719 -29.234375 3.632812 -26.980469 C 2 -23.78125 0.714844 -20.625 -0.136719 -17.523438 C -1.074219 -14.410156 -1.351562 -11.644531 -0.964844 -9.222656 C -0.621094 -6.445312 0.246094 -4.4375 1.457031 -3.175781 C 2.671875 -1.917969 4.15625 -1.308594 5.9375 -1.175781 Z M 19.761719 -31.96875 C 18.632812 -31.828125 17.949219 -32.363281 17.734375 -33.390625 C 17.433594 -34.414062 17.964844 -35.800781 19.226562 -37.71875 C 20.914062 -40.484375 22.695312 -42.46875 24.574219 -43.667969 C 26.378906 -44.773438 27.960938 -45.496094 29.242188 -45.832031 L 29.332031 -45.84375 C 31.242188 -46.078125 32.03125 -45.382812 31.714844 -43.667969 C 31.472656 -42.757812 31.058594 -41.824219 30.484375 -40.785156 C 29.90625 -39.742188 29.15625 -38.679688 28.394531 -37.707031 C 26.875 -35.753906 25.289062 -34.324219 23.722656 -33.425781 C 22.085938 -32.429688 20.824219 -31.921875 19.761719 -31.96875 Z M 30.640625 -65.925781 L 21.351562 -50.496094 L 27.777344 -51.292969 L 41.230469 -67.230469 Z M 30.640625 -65.925781 "/></g></g></g><g fill="#00c4cc" fill-opacity="1"><g transform="translate(186.424685, 150.209674)"><g><path d="M 3.050781 -0.289062 C 4.839844 -0.0703125 6.824219 -0.402344 9.007812 -1.289062 C 11.101562 -2.164062 13.242188 -3.398438 15.328125 -5.066406 C 17.335938 -6.636719 19.226562 -8.457031 20.988281 -10.613281 C 22.671875 -12.671875 24.078125 -14.871094 25.1875 -17.300781 C 25.988281 -16.519531 26.824219 -16.183594 27.777344 -16.300781 C 28.734375 -16.417969 29.65625 -16.796875 30.535156 -17.523438 C 31.425781 -18.160156 32.296875 -18.972656 33.121094 -20.132812 C 33.871094 -21.195312 34.699219 -22.355469 35.429688 -23.589844 C 36.082031 -24.730469 36.65625 -25.769531 37.136719 -26.886719 C 37.527344 -27.992188 37.855469 -28.914062 38.03125 -29.640625 L 37.921875 -29.804688 C 37.769531 -29.609375 37.617188 -29.414062 37.3125 -29.023438 C 37.007812 -28.632812 36.628906 -28.144531 36.171875 -27.5625 C 35.085938 -26.367188 34 -25.175781 32.890625 -24.160156 C 31.792969 -23.054688 30.738281 -22.304688 29.828125 -21.839844 C 28.828125 -21.363281 28.265625 -21.648438 28.027344 -22.851562 C 28.375 -23.601562 28.722656 -24.347656 28.984375 -25.085938 C 29.246094 -25.824219 29.421875 -26.550781 29.683594 -27.289062 C 30.46875 -30.207031 30.875 -32.636719 30.8125 -34.566406 C 30.738281 -36.585938 30.25 -37.671875 29.363281 -37.738281 C 28.296875 -37.78125 27.222656 -37.207031 26.308594 -36.039062 C 25.320312 -34.769531 24.539062 -33.261719 23.960938 -31.515625 C 23.152344 -29.480469 22.71875 -27.308594 22.636719 -25.097656 C 22.484375 -22.785156 22.792969 -20.972656 23.496094 -19.5625 C 21.292969 -17.4375 19.273438 -15.953125 17.449219 -15.023438 C 15.625 -14.09375 14.015625 -13.542969 12.605469 -13.542969 C 11.292969 -13.46875 10.199219 -13.777344 9.394531 -14.558594 C 8.59375 -15.339844 8.109375 -16.425781 7.925781 -17.902344 C 7.667969 -19.28125 7.800781 -21.058594 8.34375 -23.066406 C 8.804688 -25.0625 9.742188 -27.46875 11.089844 -30.105469 C 12.285156 -32.542969 13.84375 -34.9375 15.84375 -37.300781 C 17.753906 -39.652344 20.035156 -41.875 22.601562 -43.953125 C 24.621094 -45.4375 26.335938 -45.824219 27.722656 -45.292969 C 28.386719 -44.933594 28.894531 -44.378906 29.175781 -43.53125 C 29.457031 -42.683594 29.574219 -41.730469 29.375 -40.472656 C 31.09375 -41.566406 32.082031 -42.832031 32.269531 -44.179688 C 32.464844 -45.4375 32.238281 -46.554688 31.589844 -47.53125 C 31.15625 -48.183594 30.570312 -48.640625 29.910156 -49 C 29.160156 -49.347656 28.433594 -49.523438 27.652344 -49.425781 C 25.398438 -49.148438 23.191406 -48.433594 20.871094 -47.265625 C 18.554688 -46.011719 16.277344 -44.496094 14.039062 -42.632812 C 11.722656 -40.671875 9.519531 -38.546875 7.429688 -36.175781 C 5.34375 -33.800781 3.453125 -31.277344 1.84375 -28.609375 C 1.105469 -27.460938 0.308594 -26.039062 -0.375 -24.457031 C -1.136719 -22.777344 -1.8125 -21.105469 -2.390625 -19.359375 C -3.042969 -17.515625 -3.515625 -15.609375 -3.820312 -13.808594 C -4.117188 -11.917969 -4.25 -10.140625 -4.144531 -8.566406 C -3.972656 -5.765625 -3.183594 -3.660156 -1.710938 -2.433594 C -0.324219 -1.195312 1.269531 -0.421875 3.050781 -0.289062 Z M 3.050781 -0.289062 "/></g></g></g><g fill="#00c4cc" fill-opacity="1"><g transform="translate(217.93848, 146.317453)"><g><path d="M 11.890625 -65.734375 L 12.609375 -64.890625 C 11.878906 -59.140625 10.226562 -52.054688 7.65625 -43.640625 L 1.859375 -42.9375 C 2.765625 -51.726562 3.300781 -58.976562 3.46875 -64.6875 Z M 12.53125 -56.390625 Z M 9.390625 -80.171875 Z M 9.390625 -80.171875 "/></g></g></g><g fill="#c5a387" fill-opacity="1"><g transform="translate(107.110982, 158.830406)"><g><path d="M 0.242188 42.628906 C 3.191406 42.265625 6.113281 40.9375 9.15625 38.445312 C 12.121094 36.050781 15.011719 33.050781 17.816406 29.355469 C 20.546875 25.757812 23.308594 21.714844 26.015625 17.234375 C 28.648438 12.855469 31.03125 8.59375 33.316406 4.257812 C 35.601562 -0.078125 37.65625 -4.121094 39.5625 -7.972656 C 41.390625 -11.722656 42.945312 -14.824219 44.230469 -17.273438 L 63.921875 -54.785156 L 51.683594 -53.273438 C 51.019531 -52.222656 50.039062 -50.867188 48.671875 -49.113281 C 47.300781 -47.355469 45.777344 -45.40625 44.082031 -43.433594 C 42.3125 -41.363281 40.441406 -39.371094 38.398438 -37.355469 C 36.355469 -35.339844 34.378906 -33.507812 32.371094 -31.9375 C 30.285156 -30.269531 28.40625 -29.070312 26.570312 -28.226562 C 24.734375 -27.382812 23.257812 -27.199219 21.96875 -27.65625 C 20.6875 -28.027344 19.800781 -28.800781 19.304688 -29.972656 C 18.804688 -31.144531 18.449219 -32.597656 18.410156 -34.355469 C 18.292969 -36.015625 18.425781 -37.796875 18.71875 -39.683594 C 19.015625 -41.570312 19.484375 -43.480469 19.957031 -45.390625 C 20.433594 -47.210938 20.9375 -48.859375 21.449219 -50.421875 C 21.960938 -51.984375 22.417969 -53.273438 22.832031 -54.207031 C 24.445312 -58.285156 26.585938 -62.339844 29.175781 -66.359375 C 31.675781 -70.371094 34.667969 -74 37.949219 -77.402344 C 41.242188 -80.71875 44.867188 -83.457031 48.832031 -85.625 C 52.796875 -87.789062 57.136719 -89.027344 61.671875 -89.414062 C 63.605469 -89.476562 64.808594 -89.007812 65.457031 -88.027344 C 66.117188 -86.964844 66.183594 -85.738281 65.734375 -84.363281 C 65.40625 -83.441406 64.898438 -82.582031 64.125 -81.695312 C 63.355469 -80.804688 62.472656 -80.082031 61.398438 -79.507812 C 60.246094 -78.835938 58.902344 -78.316406 57.445312 -77.960938 C 55.90625 -77.59375 54.246094 -77.476562 52.457031 -77.695312 C 52.136719 -75.984375 52.222656 -74.582031 52.613281 -73.574219 C 52.914062 -72.554688 53.457031 -71.738281 54.136719 -71.207031 C 54.746094 -70.574219 55.503906 -70.140625 56.40625 -69.988281 C 57.21875 -69.824219 58.011719 -69.832031 58.878906 -69.941406 C 60.09375 -70.089844 61.429688 -70.695312 62.90625 -71.585938 C 64.296875 -72.460938 65.644531 -73.683594 66.882812 -75.070312 C 68.046875 -76.363281 69.101562 -77.8125 69.960938 -79.417969 C 70.828125 -80.9375 71.429688 -82.507812 71.765625 -84.046875 C 71.984375 -85.132812 71.933594 -86.273438 71.71875 -87.304688 C 71.414062 -88.324219 70.941406 -89.324219 70.136719 -90.105469 C 69.335938 -90.886719 68.207031 -91.453125 66.746094 -91.890625 C 65.28125 -92.324219 63.402344 -92.535156 61.199219 -92.527344 C 55.582031 -92.363281 50.175781 -91.164062 45.148438 -89.046875 C 40.132812 -86.839844 35.363281 -84.046875 30.867188 -80.496094 C 26.292969 -76.847656 22.132812 -72.71875 18.46875 -68.121094 C 14.816406 -63.441406 11.53125 -58.628906 8.792969 -53.707031 C 4.679688 -46.324219 1.914062 -39.460938 0.386719 -33.277344 C -1.144531 -27.09375 -1.617188 -21.660156 -1.148438 -17.132812 C -0.753906 -12.511719 0.492188 -8.875 2.582031 -6.222656 C 4.671875 -3.574219 7.304688 -2.222656 10.496094 -2.089844 C 12.449219 -1.976562 14.890625 -2.898438 17.734375 -4.835938 C 20.582031 -6.773438 23.589844 -9.523438 26.785156 -12.914062 C 29.894531 -16.296875 32.9375 -20.199219 36.082031 -24.730469 C 39.136719 -29.25 41.886719 -34.085938 44.347656 -39.148438 C 43.824219 -37.671875 43.085938 -35.816406 41.972656 -33.390625 C 40.863281 -30.960938 39.613281 -28.25 38.054688 -25.148438 C 36.511719 -21.960938 34.714844 -18.65625 32.84375 -15.25 C 30.984375 -11.757812 29.027344 -8.34375 26.980469 -4.917969 C 24.859375 -1.394531 22.71875 1.953125 20.640625 5.117188 C 18.476562 8.296875 16.355469 11.113281 14.28125 13.574219 C 12.128906 16.128906 10.171875 18.136719 8.25 19.695312 C 6.328125 21.253906 4.664062 22.074219 3.101562 22.269531 C 0.671875 22.570312 -1.410156 22.121094 -2.980469 20.816406 C -4.554688 19.511719 -5.503906 17.515625 -5.664062 14.800781 C -7.945312 16.316406 -9.75 18.128906 -10.914062 20.121094 C -12.164062 22.128906 -12.96875 24.167969 -13.320312 26.324219 C -13.757812 28.492188 -13.660156 30.6875 -13.230469 32.75 C -12.800781 34.808594 -11.957031 36.644531 -10.710938 38.167969 C -9.542969 39.785156 -8.066406 41.011719 -6.203125 41.839844 C -4.335938 42.667969 -2.191406 42.929688 0.242188 42.628906 Z M 0.242188 42.628906 "/></g></g></g><g fill="#c5a387" fill-opacity="1"><g transform="translate(156.856139, 152.686459)"><g><path d="M 5.9375 -1.175781 C 8.085938 -0.910156 10.167969 -1.167969 12.273438 -1.957031 C 14.378906 -2.746094 16.453125 -3.796875 18.476562 -5.277344 C 20.417969 -6.664062 22.246094 -8.300781 24.046875 -10.109375 C 25.851562 -11.917969 27.546875 -13.890625 29.046875 -16.015625 C 30.472656 -18.042969 31.800781 -20.144531 33.039062 -22.238281 C 34.191406 -24.320312 35.191406 -26.207031 36.019531 -28.070312 C 32.5625 -23.238281 29.292969 -19.746094 26.382812 -17.625 C 23.46875 -15.503906 20.953125 -14.488281 18.910156 -14.585938 C 16.796875 -14.589844 15.429688 -15.65625 14.628906 -17.847656 C 13.839844 -19.953125 13.910156 -22.960938 14.851562 -26.777344 C 15.089844 -27.6875 15.328125 -28.601562 15.570312 -29.511719 C 15.820312 -30.335938 16.160156 -31.171875 16.496094 -32.003906 C 16.363281 -30.226562 16.773438 -29.042969 17.640625 -28.445312 C 18.421875 -27.835938 19.515625 -27.53125 20.820312 -27.691406 L 20.589844 -27.398438 C 23.042969 -27.527344 25.386719 -28.519531 27.464844 -30.273438 C 29.546875 -31.941406 31.148438 -33.992188 32.441406 -36.355469 C 32.941406 -37.296875 33.398438 -38.589844 33.902344 -40.238281 C 34.402344 -41.886719 34.652344 -43.414062 34.636719 -45 C 34.625 -46.496094 34.203125 -47.765625 33.542969 -48.832031 C 32.808594 -49.796875 31.519531 -50.253906 29.761719 -50.214844 C 26.796875 -49.9375 23.921875 -48.964844 21.292969 -47.40625 C 18.664062 -45.847656 16.167969 -43.953125 13.972656 -41.742188 C 11.699219 -39.433594 9.710938 -36.984375 7.917969 -34.382812 C 6.132812 -31.695312 4.761719 -29.234375 3.632812 -26.980469 C 2 -23.78125 0.714844 -20.625 -0.136719 -17.523438 C -1.074219 -14.410156 -1.351562 -11.644531 -0.964844 -9.222656 C -0.621094 -6.445312 0.246094 -4.4375 1.457031 -3.175781 C 2.671875 -1.917969 4.15625 -1.308594 5.9375 -1.175781 Z M 19.761719 -31.96875 C 18.632812 -31.828125 17.949219 -32.363281 17.734375 -33.390625 C 17.433594 -34.414062 17.964844 -35.800781 19.226562 -37.71875 C 20.914062 -40.484375 22.695312 -42.46875 24.574219 -43.667969 C 26.378906 -44.773438 27.960938 -45.496094 29.242188 -45.832031 L 29.332031 -45.84375 C 31.242188 -46.078125 32.03125 -45.382812 31.714844 -43.667969 C 31.472656 -42.757812 31.058594 -41.824219 30.484375 -40.785156 C 29.90625 -39.742188 29.15625 -38.679688 28.394531 -37.707031 C 26.875 -35.753906 25.289062 -34.324219 23.722656 -33.425781 C 22.085938 -32.429688 20.824219 -31.921875 19.761719 -31.96875 Z M 30.640625 -65.925781 L 21.351562 -50.496094 L 27.777344 -51.292969 L 41.230469 -67.230469 Z M 30.640625 -65.925781 "/></g></g></g><g fill="#c5a387" fill-opacity="1"><g transform="translate(188.369939, 148.794238)"><g><path d="M 3.050781 -0.289062 C 4.839844 -0.0703125 6.824219 -0.402344 9.007812 -1.289062 C 11.101562 -2.164062 13.242188 -3.398438 15.328125 -5.066406 C 17.335938 -6.636719 19.226562 -8.457031 20.988281 -10.613281 C 22.671875 -12.671875 24.078125 -14.871094 25.1875 -17.300781 C 25.988281 -16.519531 26.824219 -16.183594 27.777344 -16.300781 C 28.734375 -16.417969 29.65625 -16.796875 30.535156 -17.523438 C 31.425781 -18.160156 32.296875 -18.972656 33.121094 -20.132812 C 33.871094 -21.195312 34.699219 -22.355469 35.429688 -23.589844 C 36.082031 -24.730469 36.65625 -25.769531 37.136719 -26.886719 C 37.527344 -27.992188 37.855469 -28.914062 38.03125 -29.640625 L 37.921875 -29.804688 C 37.769531 -29.609375 37.617188 -29.414062 37.3125 -29.023438 C 37.007812 -28.632812 36.628906 -28.144531 36.171875 -27.5625 C 35.085938 -26.367188 34 -25.175781 32.890625 -24.160156 C 31.792969 -23.054688 30.738281 -22.304688 29.828125 -21.839844 C 28.828125 -21.363281 28.265625 -21.648438 28.027344 -22.851562 C 28.375 -23.601562 28.722656 -24.347656 28.984375 -25.085938 C 29.246094 -25.824219 29.421875 -26.550781 29.683594 -27.289062 C 30.46875 -30.207031 30.875 -32.636719 30.8125 -34.566406 C 30.738281 -36.585938 30.25 -37.671875 29.363281 -37.738281 C 28.296875 -37.78125 27.222656 -37.207031 26.308594 -36.039062 C 25.320312 -34.769531 24.539062 -33.261719 23.960938 -31.515625 C 23.152344 -29.480469 22.71875 -27.308594 22.636719 -25.097656 C 22.484375 -22.785156 22.792969 -20.972656 23.496094 -19.5625 C 21.292969 -17.4375 19.273438 -15.953125 17.449219 -15.023438 C 15.625 -14.09375 14.015625 -13.542969 12.605469 -13.542969 C 11.292969 -13.46875 10.199219 -13.777344 9.394531 -14.558594 C 8.59375 -15.339844 8.109375 -16.425781 7.925781 -17.902344 C 7.667969 -19.28125 7.800781 -21.058594 8.34375 -23.066406 C 8.804688 -25.0625 9.742188 -27.46875 11.089844 -30.105469 C 12.285156 -32.542969 13.84375 -34.9375 15.84375 -37.300781 C 17.753906 -39.652344 20.035156 -41.875 22.601562 -43.953125 C 24.621094 -45.4375 26.335938 -45.824219 27.722656 -45.292969 C 28.386719 -44.933594 28.894531 -44.378906 29.175781 -43.53125 C 29.457031 -42.683594 29.574219 -41.730469 29.375 -40.472656 C 31.09375 -41.566406 32.082031 -42.832031 32.269531 -44.179688 C 32.464844 -45.4375 32.238281 -46.554688 31.589844 -47.53125 C 31.15625 -48.183594 30.570312 -48.640625 29.910156 -49 C 29.160156 -49.347656 28.433594 -49.523438 27.652344 -49.425781 C 25.398438 -49.148438 23.191406 -48.433594 20.871094 -47.265625 C 18.554688 -46.011719 16.277344 -44.496094 14.039062 -42.632812 C 11.722656 -40.671875 9.519531 -38.546875 7.429688 -36.175781 C 5.34375 -33.800781 3.453125 -31.277344 1.84375 -28.609375 C 1.105469 -27.460938 0.308594 -26.039062 -0.375 -24.457031 C -1.136719 -22.777344 -1.8125 -21.105469 -2.390625 -19.359375 C -3.042969 -17.515625 -3.515625 -15.609375 -3.820312 -13.808594 C -4.117188 -11.917969 -4.25 -10.140625 -4.144531 -8.566406 C -3.972656 -5.765625 -3.183594 -3.660156 -1.710938 -2.433594 C -0.324219 -1.195312 1.269531 -0.421875 3.050781 -0.289062 Z M 3.050781 -0.289062 "/></g></g></g><g fill="#c5a387" fill-opacity="1"><g transform="translate(219.883733, 144.902017)"><g><path d="M 11.890625 -65.734375 L 12.609375 -64.890625 C 11.878906 -59.140625 10.226562 -52.054688 7.65625 -43.640625 L 1.859375 -42.9375 C 2.765625 -51.726562 3.300781 -58.976562 3.46875 -64.6875 Z M 12.53125 -56.390625 Z M 9.390625 -80.171875 Z M 9.390625 -80.171875 "/></g></g></g><g fill="#ff914d" fill-opacity="1"><g transform="translate(90.086106, 225.690392)"><g><path d="M 40.21875 -56.882812 C 41.585938 -57.226562 42.738281 -57.898438 43.867188 -58.742188 C 44.910156 -59.578125 45.746094 -60.652344 46.464844 -61.972656 C 47.738281 -64.511719 47.699219 -67.679688 46.53125 -71.414062 C 45.25 -70.371094 43.980469 -69.953125 42.917969 -69.996094 C 41.769531 -70.03125 40.847656 -70.359375 40.132812 -71.152344 C 39.339844 -71.847656 38.777344 -72.835938 38.453125 -74.027344 C 38.128906 -75.222656 38.066406 -76.449219 38.242188 -77.878906 C 38.703125 -80.582031 39.769531 -82.652344 41.539062 -84.015625 C 43.308594 -85.382812 45.308594 -86.332031 47.542969 -86.785156 C 49.777344 -87.238281 52.121094 -87.527344 54.414062 -87.546875 C 56.625 -87.46875 58.847656 -87.300781 60.996094 -87.039062 C 63.144531 -86.773438 65.21875 -86.414062 67.214844 -85.953125 C 68.125 -85.714844 69.035156 -85.472656 69.859375 -85.222656 C 70.683594 -84.972656 71.496094 -84.808594 72.320312 -84.558594 C 73.058594 -84.296875 73.894531 -83.957031 74.71875 -83.707031 C 75.464844 -83.359375 76.386719 -83.03125 77.40625 -82.628906 C 78.339844 -82.214844 79.359375 -81.8125 80.378906 -81.410156 C 81.398438 -81.007812 82.40625 -80.691406 83.5 -80.386719 C 85.617188 -79.675781 87.796875 -79.152344 90.042969 -78.8125 C 92.199219 -78.464844 94.316406 -78.460938 96.207031 -78.871094 C 97.769531 -79.0625 99.199219 -79.59375 100.332031 -80.4375 C 101.472656 -81.195312 102.417969 -82.105469 103.15625 -83.253906 C 103.820312 -84.304688 104.296875 -85.421875 104.496094 -86.679688 C 104.703125 -87.851562 104.726562 -89.089844 104.578125 -90.304688 C 104.359375 -91.335938 103.972656 -92.34375 103.410156 -93.332031 C 102.847656 -94.320312 102.109375 -95.289062 101.210938 -96.148438 C 100.234375 -96.90625 99.171875 -97.65625 97.859375 -98.289062 C 96.558594 -98.832031 95.183594 -99.28125 93.566406 -99.523438 C 93.824219 -97.4375 93.84375 -95.855469 93.472656 -94.574219 C 93.101562 -93.292969 92.523438 -92.253906 91.730469 -91.539062 C 90.949219 -90.738281 89.960938 -90.175781 88.765625 -89.851562 C 87.574219 -89.527344 86.367188 -89.289062 85.132812 -89.3125 C 83.382812 -89.183594 81.714844 -89.15625 80.109375 -89.308594 C 78.425781 -89.367188 76.820312 -89.519531 75.292969 -89.773438 L 66.058594 -91.011719 C 63.023438 -91.34375 59.917969 -91.488281 56.835938 -91.460938 C 53.757812 -91.429688 50.457031 -91.023438 46.875 -90.054688 C 44.488281 -89.40625 42.132812 -88.496094 39.796875 -87.414062 C 37.460938 -86.335938 35.410156 -85.109375 33.550781 -83.734375 C 31.617188 -82.261719 29.976562 -80.5625 28.609375 -78.804688 C 27.25 -76.964844 26.433594 -75.011719 25.996094 -72.84375 C 25.570312 -70.585938 25.585938 -68.296875 26.125 -66.070312 C 26.578125 -63.835938 27.519531 -61.925781 28.777344 -60.316406 C 30.042969 -58.621094 31.605469 -57.40625 33.546875 -56.675781 C 35.398438 -55.933594 37.679688 -56.039062 40.21875 -56.882812 Z M 16.636719 -2.320312 C 19.4375 -2.488281 22.042969 -3.515625 24.464844 -5.3125 C 26.886719 -7.109375 29.246094 -9.429688 31.539062 -12.269531 C 33.84375 -15.019531 35.917969 -18.1875 37.941406 -21.785156 C 39.976562 -25.296875 41.988281 -28.984375 43.980469 -32.84375 C 45.046875 -34.914062 46.246094 -37.355469 47.59375 -39.988281 C 48.941406 -42.625 50.367188 -45.355469 51.945312 -48.28125 L 54.242188 -52.53125 C 56.046875 -55.753906 57.941406 -58.984375 59.832031 -62.214844 C 61.726562 -65.445312 63.574219 -68.316406 65.453125 -70.929688 C 67.257812 -73.445312 68.945312 -75.503906 70.683594 -77.128906 C 72.335938 -78.742188 73.800781 -79.714844 75.167969 -80.0625 C 73.5 -81.441406 71.699219 -81.75 69.851562 -80.992188 C 67.921875 -80.222656 65.8125 -78.730469 63.433594 -76.585938 C 62.726562 -75.882812 61.816406 -74.710938 60.609375 -73.0625 C 59.410156 -71.328125 57.976562 -69.386719 56.496094 -67.089844 C 54.933594 -64.78125 53.214844 -62.277344 51.429688 -59.589844 C 49.648438 -56.902344 47.777344 -54.203125 45.90625 -51.503906 L 42.828125 -47.15625 C 41.460938 -45.402344 40.175781 -43.65625 38.871094 -42.085938 C 37.570312 -40.515625 36.339844 -39.039062 35.167969 -37.835938 C 33.535156 -36.050781 31.972656 -34.445312 30.386719 -33.015625 C 28.808594 -31.5 27.203125 -30.242188 25.660156 -29.171875 C 24.042969 -28 22.566406 -27.113281 21.140625 -26.496094 C 19.71875 -25.882812 18.441406 -25.546875 17.203125 -25.570312 C 15.976562 -25.507812 14.792969 -25.800781 13.753906 -26.378906 C 12.710938 -26.953125 11.878906 -27.996094 11.25 -29.507812 C 10.546875 -30.917969 10.140625 -32.808594 9.9375 -35.160156 C 9.746094 -37.429688 9.910156 -40.359375 10.449219 -43.863281 C 8.113281 -42.78125 6.082031 -41.382812 4.539062 -39.605469 C 2.910156 -37.820312 1.5625 -35.890625 0.503906 -33.734375 C -0.625 -31.476562 -1.398438 -29.179688 -1.804688 -26.75 C -2.285156 -24.222656 -2.429688 -21.824219 -2.324219 -19.542969 C -2.199219 -17.09375 -1.726562 -14.683594 -0.925781 -12.488281 C -0.125 -10.296875 0.988281 -8.40625 2.59375 -6.84375 C 4.121094 -5.179688 6.039062 -3.917969 8.335938 -3.144531 C 10.648438 -2.285156 13.414062 -2.007812 16.636719 -2.320312 Z M 16.636719 -2.320312 "/></g></g></g><g fill="#ff914d" fill-opacity="1"><g transform="translate(146.168837, 218.7637)"><g><path d="M 4.144531 -0.6875 C 6.292969 -0.425781 8.378906 -0.683594 10.484375 -1.472656 C 12.589844 -2.261719 14.664062 -3.308594 16.683594 -4.792969 C 18.628906 -6.179688 20.453125 -7.816406 22.257812 -9.625 C 24.0625 -11.433594 25.757812 -13.40625 27.257812 -15.53125 C 28.679688 -17.558594 30.007812 -19.660156 31.246094 -21.753906 C 32.402344 -23.832031 33.402344 -25.71875 34.230469 -27.585938 C 30.773438 -22.75 27.5 -19.261719 24.589844 -17.140625 C 21.679688 -15.015625 19.160156 -14 17.121094 -14.101562 C 15.003906 -14.105469 13.640625 -15.171875 12.839844 -17.363281 C 12.050781 -19.46875 12.121094 -22.476562 13.058594 -26.292969 C 13.953125 -29.753906 15.085938 -32.710938 16.371094 -35.164062 C 17.664062 -37.527344 19.011719 -39.457031 20.40625 -41.039062 C 21.71875 -42.523438 23 -43.5625 24.324219 -44.253906 C 25.652344 -44.945312 26.746094 -45.347656 27.691406 -45.550781 C 28.386719 -45.636719 29.015625 -45.539062 29.503906 -45.160156 C 29.902344 -44.765625 30.140625 -44.269531 30.140625 -43.5625 C 30.054688 -42.847656 29.8125 -41.9375 29.324219 -40.90625 C 28.832031 -39.875 27.996094 -38.800781 26.898438 -37.699219 C 26.507812 -37.296875 26.019531 -36.972656 25.539062 -36.558594 C 25.214844 -36.34375 24.898438 -36.039062 24.574219 -35.824219 C 24.25 -35.605469 24.019531 -35.316406 23.78125 -35.109375 C 23.238281 -34.511719 22.867188 -33.9375 22.671875 -33.386719 C 22.390625 -32.820312 22.550781 -32.222656 23.070312 -31.582031 L 22.90625 -31.476562 C 23.339844 -30.824219 23.992188 -30.550781 25.042969 -30.59375 C 26.097656 -30.636719 27.160156 -31.296875 28.410156 -32.59375 C 29.507812 -33.699219 30.390625 -35.132812 31.140625 -36.898438 C 31.902344 -38.578125 32.394531 -40.316406 32.699219 -42.117188 C 32.960938 -44.265625 32.824219 -46.097656 32.109375 -47.597656 C 31.398438 -49.09375 29.988281 -49.800781 27.96875 -49.730469 C 25.007812 -49.449219 22.128906 -48.480469 19.5 -46.921875 C 16.875 -45.363281 14.375 -43.464844 12.179688 -41.257812 C 9.910156 -38.949219 7.921875 -36.5 6.125 -33.898438 C 4.34375 -31.210938 2.972656 -28.75 1.839844 -26.492188 C 0.207031 -23.296875 -1.078125 -20.140625 -1.929688 -17.039062 C -2.867188 -13.925781 -3.140625 -11.160156 -2.753906 -8.738281 C -2.410156 -5.960938 -1.546875 -3.953125 -0.332031 -2.691406 C 0.882812 -1.429688 2.367188 -0.820312 4.144531 -0.6875 Z M 4.144531 -0.6875 "/></g></g></g><g fill="#ff914d" fill-opacity="1"><g transform="translate(177.248556, 214.925092)"><g><path d="M -11.09375 -2.773438 L -13.378906 1.566406 L -0.53125 -0.0234375 L 37.269531 -72.207031 L 24.59375 -70.640625 C 24.375 -70.261719 24.09375 -69.699219 23.65625 -68.941406 C 23.222656 -68.179688 22.730469 -67.152344 22.167969 -66.023438 L 17.75 -57.546875 C 15.878906 -54.140625 13.953125 -50.464844 11.972656 -46.519531 L 5.464844 -34.257812 C 4.320312 -32.089844 3.253906 -30.019531 2.1875 -27.945312 C 1.121094 -25.875 0.046875 -23.890625 -0.945312 -21.917969 C -2.097656 -19.835938 -3.097656 -17.949219 -4.023438 -16.160156 C -5.023438 -14.273438 -5.875 -12.585938 -6.734375 -10.980469 C -7.582031 -9.289062 -8.363281 -7.78125 -9.082031 -6.457031 C -9.789062 -5.050781 -10.519531 -3.8125 -11.09375 -2.773438 Z M -11.09375 -2.773438 "/></g></g></g><g fill="#ff914d" fill-opacity="1"><g transform="translate(197.997171, 212.362462)"><g><path d="M -9.429688 1.429688 L 3.332031 -0.148438 C 3.972656 -1.371094 4.613281 -2.597656 5.332031 -3.921875 C 5.964844 -5.230469 6.605469 -6.457031 7.324219 -7.78125 C 7.964844 -9.003906 8.609375 -10.230469 9.25 -11.453125 C 9.902344 -12.59375 10.546875 -13.820312 11.273438 -15.054688 C 12.570312 -17.417969 14.035156 -19.800781 15.503906 -22.1875 C 16.984375 -24.484375 18.539062 -26.882812 20.355469 -29.308594 C 21.421875 -30.675781 22.472656 -32.128906 23.617188 -33.589844 C 24.679688 -34.957031 25.832031 -36.332031 26.921875 -37.523438 C 28.019531 -38.628906 29.050781 -39.550781 30.015625 -40.285156 C 30.984375 -41.023438 31.820312 -41.390625 32.515625 -41.476562 C 32.957031 -41.441406 33.347656 -41.136719 33.769531 -40.574219 C 34.03125 -39.902344 33.8125 -38.816406 33.214844 -37.242188 C 32.472656 -35.390625 31.730469 -33.535156 31.058594 -31.863281 C 30.292969 -30.183594 29.53125 -28.503906 28.761719 -26.910156 C 27.910156 -25.21875 27.136719 -23.625 26.367188 -22.03125 C 25.605469 -20.351562 24.832031 -18.757812 24.144531 -17.171875 C 23.589844 -15.957031 23.066406 -14.484375 22.566406 -12.835938 C 22.0625 -11.1875 21.910156 -9.582031 21.996094 -8.179688 C 22.003906 -6.683594 22.5 -5.511719 23.410156 -4.566406 C 24.234375 -3.609375 25.761719 -3.359375 28.019531 -3.636719 C 29.929688 -3.871094 31.851562 -4.726562 33.765625 -6.375 C 35.675781 -8.019531 37.382812 -9.90625 39.058594 -12.050781 C 40.644531 -14.1875 41.960938 -16.375 43.003906 -18.621094 C 44.050781 -20.867188 44.703125 -22.707031 44.867188 -24.226562 C 44.574219 -23.75 44.355469 -23.371094 44.140625 -22.992188 C 43.835938 -22.601562 43.628906 -22.136719 43.410156 -21.757812 C 42.8125 -20.890625 42.117188 -20.097656 41.496094 -19.40625 C 40.878906 -18.710938 40.152344 -18.179688 39.414062 -17.738281 C 38.597656 -17.195312 37.835938 -16.925781 37.132812 -16.925781 C 36.351562 -16.828125 35.875 -17.125 35.625 -17.710938 C 35.386719 -18.207031 35.300781 -18.902344 35.453125 -19.804688 C 35.519531 -20.695312 35.835938 -21.703125 36.304688 -22.90625 C 36.699219 -24.011719 37.175781 -25.128906 37.667969 -26.160156 C 38.070312 -27.179688 38.710938 -28.402344 39.582031 -29.921875 C 39.941406 -30.582031 40.289062 -31.332031 40.722656 -32.089844 C 41.160156 -32.847656 41.507812 -33.597656 41.921875 -34.527344 C 42.695312 -36.121094 43.457031 -37.804688 44.109375 -39.648438 C 44.773438 -41.402344 45.179688 -43.128906 45.417969 -44.746094 C 45.585938 -46.261719 45.335938 -47.554688 44.839844 -48.726562 C 44.34375 -49.898438 43.28125 -50.648438 41.804688 -51.171875 C 40.351562 -51.523438 38.875 -51.339844 37.226562 -50.429688 C 35.574219 -49.523438 33.878906 -48.253906 32.132812 -46.71875 C 30.390625 -45.09375 28.597656 -43.195312 26.902344 -41.222656 C 25.121094 -39.242188 23.511719 -37.277344 22.054688 -35.511719 L 27.984375 -46.027344 C 28.917969 -47.027344 30.34375 -48.347656 32.101562 -49.796875 C 32.992188 -50.4375 33.875 -51.164062 34.828125 -51.988281 C 35.796875 -52.722656 36.753906 -53.546875 37.785156 -54.464844 C 39.785156 -56.125 41.847656 -57.964844 43.890625 -59.980469 C 45.933594 -61.996094 47.878906 -64.085938 49.640625 -66.242188 C 51.085938 -68.097656 52.355469 -69.929688 53.53125 -71.835938 C 54.621094 -73.734375 55.371094 -75.5 55.863281 -77.238281 C 56.277344 -78.875 56.34375 -80.46875 56.085938 -81.847656 C 55.742188 -83.214844 54.972656 -84.441406 53.605469 -85.507812 C 52.652344 -86.09375 51.535156 -86.574219 50.277344 -86.769531 C 49.019531 -86.96875 47.617188 -86.882812 46.164062 -86.527344 C 44.632812 -86.074219 43.222656 -85.371094 41.765625 -84.308594 C 40.3125 -83.25 39.074219 -81.863281 37.964844 -80.136719 C 34.363281 -74.316406 30.546875 -68.117188 26.585938 -61.632812 C 22.636719 -55.0625 18.546875 -48.210938 14.480469 -41.1875 C 10.335938 -34.066406 6.277344 -26.953125 2.230469 -19.753906 C -1.816406 -12.554688 -5.710938 -5.554688 -9.429688 1.429688 Z M 30.914062 -53 L 47.890625 -79.691406 C 48.414062 -80.460938 49.054688 -80.980469 49.726562 -81.238281 C 50.410156 -81.410156 50.941406 -81.386719 51.503906 -81.105469 C 51.894531 -80.800781 52.308594 -80.324219 52.566406 -79.648438 C 52.828125 -78.976562 52.847656 -78.097656 52.714844 -77.023438 C 52.496094 -75.9375 51.953125 -74.636719 51.246094 -73.230469 C 50.546875 -71.730469 49.429688 -70.09375 47.972656 -68.328125 C 46.753906 -66.769531 45.265625 -65.261719 43.699219 -63.660156 C 42.050781 -62.042969 40.472656 -60.527344 38.886719 -59.097656 C 37.214844 -57.65625 35.703125 -56.324219 34.25 -55.265625 C 32.792969 -54.203125 31.738281 -53.457031 30.914062 -53 Z M 30.914062 -53 "/></g></g></g><g fill="#ff914d" fill-opacity="1"><g transform="translate(237.758492, 207.451603)"><g><path d="M 27.597656 -4.203125 L 27.28125 -3.898438 C 29.714844 -4.199219 32.058594 -5.195312 34.394531 -6.980469 C 36.652344 -8.667969 38.859375 -10.792969 40.847656 -13.242188 C 42.761719 -15.59375 44.46875 -18.183594 46.078125 -20.851562 C 47.6875 -23.519531 48.960938 -26.054688 49.917969 -28.289062 C 49.769531 -28.09375 49.605469 -27.984375 49.367188 -27.78125 C 49.125 -27.574219 48.898438 -27.28125 48.582031 -26.976562 C 47.886719 -26.1875 47.105469 -25.386719 46.234375 -24.574219 C 45.378906 -23.671875 44.433594 -22.761719 43.398438 -21.84375 C 41.195312 -19.71875 39.359375 -18.171875 37.707031 -17.261719 C 36.894531 -16.71875 36.210938 -16.546875 35.753906 -16.667969 C 35.296875 -16.789062 35.148438 -17.296875 35.300781 -18.199219 C 35.367188 -19.085938 35.976562 -20.574219 36.976562 -22.460938 L 52.699219 -52.871094 L 40.460938 -51.359375 L 35.890625 -42.6875 C 35.675781 -44.421875 35.242188 -45.78125 34.484375 -46.917969 C 33.738281 -47.972656 32.851562 -48.746094 31.722656 -49.3125 C 30.519531 -49.777344 29.171875 -49.964844 27.761719 -49.96875 C 26.363281 -49.882812 24.820312 -49.515625 23.300781 -48.976562 C 22.128906 -48.480469 20.804688 -47.785156 19.4375 -46.734375 C 18.066406 -45.683594 16.710938 -44.546875 15.296875 -43.140625 C 13.882812 -41.730469 12.40625 -40.136719 10.949219 -38.371094 C 9.492188 -36.605469 8.125 -34.851562 6.777344 -32.921875 C 5.121094 -30.601562 3.644531 -28.304688 2.347656 -25.9375 C 0.976562 -23.476562 -0.140625 -21.136719 -1.089844 -18.816406 C -1.765625 -17.144531 -2.320312 -15.226562 -2.585938 -13.078125 C -2.847656 -10.929688 -2.871094 -8.988281 -2.472656 -7.1875 C -2.152344 -5.289062 -1.4375 -3.789062 -0.410156 -2.59375 C 0.621094 -1.398438 2.183594 -0.886719 4.351562 -1.15625 C 7.304688 -1.519531 10.355469 -2.511719 13.308594 -4.289062 C 14.710938 -5.078125 16.003906 -6.03125 17.195312 -7.058594 C 18.390625 -8.089844 19.390625 -9.269531 20.121094 -10.507812 C 20.195312 -8.488281 20.917969 -6.902344 22.304688 -5.664062 C 23.605469 -4.414062 25.339844 -3.921875 27.597656 -4.203125 Z M 11.738281 -13.4375 C 10.902344 -13.773438 10.296875 -14.40625 9.90625 -15.414062 C 9.519531 -16.425781 9.53125 -17.746094 9.847656 -19.460938 C 10.089844 -21.078125 10.730469 -23.007812 11.84375 -25.4375 C 12.964844 -27.777344 14.5625 -30.53125 16.640625 -33.699219 C 17.53125 -35.042969 18.421875 -36.386719 19.488281 -37.75 C 20.464844 -39.105469 21.554688 -40.296875 22.640625 -41.492188 C 23.652344 -42.585938 24.769531 -43.515625 26.007812 -44.199219 C 27.160156 -44.867188 28.441406 -45.203125 29.828125 -45.375 C 30.621094 -45.386719 31.261719 -45.199219 31.75 -44.820312 C 32.160156 -44.339844 32.496094 -43.765625 32.765625 -43.003906 C 32.949219 -42.234375 33.054688 -41.367188 33.011719 -40.304688 C 32.964844 -39.238281 32.921875 -38.175781 32.714844 -37.003906 L 32.800781 -37.015625 L 25.316406 -23.398438 C 24.75 -22.273438 23.933594 -21.023438 23.042969 -19.679688 C 22.0625 -18.324219 20.988281 -17.046875 19.804688 -15.929688 C 18.542969 -14.71875 17.238281 -13.851562 15.894531 -13.332031 C 14.472656 -12.71875 13.0625 -12.71875 11.738281 -13.4375 Z M 11.738281 -13.4375 "/></g></g></g><g fill="#ff914d" fill-opacity="1"><g transform="translate(282.641949, 201.908116)"><g><path d="M 1.878906 -0.496094 C 3.679688 -0.191406 5.773438 -0.359375 8.140625 -1.179688 C 10.507812 -2.003906 12.894531 -3.355469 15.394531 -5.25 C 17.804688 -7.136719 20.066406 -9.53125 22.261719 -12.445312 C 24.457031 -15.359375 26.316406 -18.851562 27.777344 -22.734375 C 27.246094 -22.050781 26.710938 -21.367188 26.167969 -20.773438 C 25.625 -20.175781 25.082031 -19.582031 24.527344 -19.070312 C 23.265625 -17.859375 21.984375 -16.816406 20.683594 -15.953125 C 19.378906 -15.085938 18.226562 -14.414062 17.054688 -13.917969 C 15.804688 -13.324219 14.699219 -13.007812 13.722656 -13.066406 C 12.757812 -13.035156 12.183594 -13.402344 11.921875 -14.078125 C 11.578125 -14.738281 11.480469 -15.519531 11.699219 -16.605469 C 11.929688 -17.601562 12.308594 -18.796875 12.855469 -20.097656 C 13.324219 -21.300781 13.878906 -22.515625 14.519531 -23.742188 C 15.085938 -24.867188 15.738281 -26.007812 16.316406 -27.046875 C 16.902344 -28 17.335938 -28.761719 17.542969 -29.226562 L 26.671875 -46.660156 L 35.355469 -47.730469 L 37.5625 -50.5625 L 28.183594 -49.402344 L 31.894531 -56.472656 L 42.601562 -76.128906 C 41.539062 -76.171875 40.769531 -76.695312 40.3125 -77.519531 C 39.773438 -78.335938 39.308594 -79.246094 38.996094 -80.355469 C 38.605469 -81.363281 38.214844 -82.371094 37.738281 -83.371094 C 37.265625 -84.371094 36.648438 -85.085938 35.714844 -85.5 C 35.574219 -85.21875 35.441406 -84.851562 35.222656 -84.472656 C 34.921875 -84.082031 34.636719 -83.515625 34.355469 -82.953125 L 31.851562 -78.238281 C 31.265625 -77.285156 30.773438 -76.253906 30.285156 -75.222656 C 29.707031 -74.183594 29.132812 -73.140625 28.554688 -72.101562 C 27.902344 -70.960938 27.324219 -69.921875 26.761719 -68.792969 C 26.195312 -67.667969 25.542969 -66.527344 24.976562 -65.402344 C 22.101562 -60.109375 18.949219 -54.253906 15.511719 -47.835938 L 8.566406 -46.980469 L 6.359375 -44.152344 L 13.996094 -45.09375 L 4.628906 -27.453125 L 2.171875 -23.097656 C 1.746094 -22.25 1.324219 -21.40625 0.886719 -20.648438 C 0.453125 -19.886719 0.0273438 -19.042969 -0.320312 -18.292969 C -1.167969 -16.601562 -1.84375 -14.933594 -2.347656 -13.285156 C -2.933594 -11.625 -3.273438 -10.085938 -3.339844 -8.488281 C -3.5625 -5.996094 -3.152344 -4.105469 -2.199219 -2.8125 C -1.246094 -1.519531 0.0859375 -0.714844 1.878906 -0.496094 Z M 1.878906 -0.496094 "/></g></g></g><g fill="#004aad" fill-opacity="1"><g transform="translate(92.03136, 224.274958)"><g><path d="M 40.21875 -56.882812 C 41.585938 -57.226562 42.738281 -57.898438 43.867188 -58.742188 C 44.910156 -59.578125 45.746094 -60.652344 46.464844 -61.972656 C 47.738281 -64.511719 47.699219 -67.679688 46.53125 -71.414062 C 45.25 -70.371094 43.980469 -69.953125 42.917969 -69.996094 C 41.769531 -70.03125 40.847656 -70.359375 40.132812 -71.152344 C 39.339844 -71.847656 38.777344 -72.835938 38.453125 -74.027344 C 38.128906 -75.222656 38.066406 -76.449219 38.242188 -77.878906 C 38.703125 -80.582031 39.769531 -82.652344 41.539062 -84.015625 C 43.308594 -85.382812 45.308594 -86.332031 47.542969 -86.785156 C 49.777344 -87.238281 52.121094 -87.527344 54.414062 -87.546875 C 56.625 -87.46875 58.847656 -87.300781 60.996094 -87.039062 C 63.144531 -86.773438 65.21875 -86.414062 67.214844 -85.953125 C 68.125 -85.714844 69.035156 -85.472656 69.859375 -85.222656 C 70.683594 -84.972656 71.496094 -84.808594 72.320312 -84.558594 C 73.058594 -84.296875 73.894531 -83.957031 74.71875 -83.707031 C 75.464844 -83.359375 76.386719 -83.03125 77.40625 -82.628906 C 78.339844 -82.214844 79.359375 -81.8125 80.378906 -81.410156 C 81.398438 -81.007812 82.40625 -80.691406 83.5 -80.386719 C 85.617188 -79.675781 87.796875 -79.152344 90.042969 -78.8125 C 92.199219 -78.464844 94.316406 -78.460938 96.207031 -78.871094 C 97.769531 -79.0625 99.199219 -79.59375 100.332031 -80.4375 C 101.472656 -81.195312 102.417969 -82.105469 103.15625 -83.253906 C 103.820312 -84.304688 104.296875 -85.421875 104.496094 -86.679688 C 104.703125 -87.851562 104.726562 -89.089844 104.578125 -90.304688 C 104.359375 -91.335938 103.972656 -92.34375 103.410156 -93.332031 C 102.847656 -94.320312 102.109375 -95.289062 101.210938 -96.148438 C 100.234375 -96.90625 99.171875 -97.65625 97.859375 -98.289062 C 96.558594 -98.832031 95.183594 -99.28125 93.566406 -99.523438 C 93.824219 -97.4375 93.84375 -95.855469 93.472656 -94.574219 C 93.101562 -93.292969 92.523438 -92.253906 91.730469 -91.539062 C 90.949219 -90.738281 89.960938 -90.175781 88.765625 -89.851562 C 87.574219 -89.527344 86.367188 -89.289062 85.132812 -89.3125 C 83.382812 -89.183594 81.714844 -89.15625 80.109375 -89.308594 C 78.425781 -89.367188 76.820312 -89.519531 75.292969 -89.773438 L 66.058594 -91.011719 C 63.023438 -91.34375 59.917969 -91.488281 56.835938 -91.460938 C 53.757812 -91.429688 50.457031 -91.023438 46.875 -90.054688 C 44.488281 -89.40625 42.132812 -88.496094 39.796875 -87.414062 C 37.460938 -86.335938 35.410156 -85.109375 33.550781 -83.734375 C 31.617188 -82.261719 29.976562 -80.5625 28.609375 -78.804688 C 27.25 -76.964844 26.433594 -75.011719 25.996094 -72.84375 C 25.570312 -70.585938 25.585938 -68.296875 26.125 -66.070312 C 26.578125 -63.835938 27.519531 -61.925781 28.777344 -60.316406 C 30.042969 -58.621094 31.605469 -57.40625 33.546875 -56.675781 C 35.398438 -55.933594 37.679688 -56.039062 40.21875 -56.882812 Z M 16.636719 -2.320312 C 19.4375 -2.488281 22.042969 -3.515625 24.464844 -5.3125 C 26.886719 -7.109375 29.246094 -9.429688 31.539062 -12.269531 C 33.84375 -15.019531 35.917969 -18.1875 37.941406 -21.785156 C 39.976562 -25.296875 41.988281 -28.984375 43.980469 -32.84375 C 45.046875 -34.914062 46.246094 -37.355469 47.59375 -39.988281 C 48.941406 -42.625 50.367188 -45.355469 51.945312 -48.28125 L 54.242188 -52.53125 C 56.046875 -55.753906 57.941406 -58.984375 59.832031 -62.214844 C 61.726562 -65.445312 63.574219 -68.316406 65.453125 -70.929688 C 67.257812 -73.445312 68.945312 -75.503906 70.683594 -77.128906 C 72.335938 -78.742188 73.800781 -79.714844 75.167969 -80.0625 C 73.5 -81.441406 71.699219 -81.75 69.851562 -80.992188 C 67.921875 -80.222656 65.8125 -78.730469 63.433594 -76.585938 C 62.726562 -75.882812 61.816406 -74.710938 60.609375 -73.0625 C 59.410156 -71.328125 57.976562 -69.386719 56.496094 -67.089844 C 54.933594 -64.78125 53.214844 -62.277344 51.429688 -59.589844 C 49.648438 -56.902344 47.777344 -54.203125 45.90625 -51.503906 L 42.828125 -47.15625 C 41.460938 -45.402344 40.175781 -43.65625 38.871094 -42.085938 C 37.570312 -40.515625 36.339844 -39.039062 35.167969 -37.835938 C 33.535156 -36.050781 31.972656 -34.445312 30.386719 -33.015625 C 28.808594 -31.5 27.203125 -30.242188 25.660156 -29.171875 C 24.042969 -28 22.566406 -27.113281 21.140625 -26.496094 C 19.71875 -25.882812 18.441406 -25.546875 17.203125 -25.570312 C 15.976562 -25.507812 14.792969 -25.800781 13.753906 -26.378906 C 12.710938 -26.953125 11.878906 -27.996094 11.25 -29.507812 C 10.546875 -30.917969 10.140625 -32.808594 9.9375 -35.160156 C 9.746094 -37.429688 9.910156 -40.359375 10.449219 -43.863281 C 8.113281 -42.78125 6.082031 -41.382812 4.539062 -39.605469 C 2.910156 -37.820312 1.5625 -35.890625 0.503906 -33.734375 C -0.625 -31.476562 -1.398438 -29.179688 -1.804688 -26.75 C -2.285156 -24.222656 -2.429688 -21.824219 -2.324219 -19.542969 C -2.199219 -17.09375 -1.726562 -14.683594 -0.925781 -12.488281 C -0.125 -10.296875 0.988281 -8.40625 2.59375 -6.84375 C 4.121094 -5.179688 6.039062 -3.917969 8.335938 -3.144531 C 10.648438 -2.285156 13.414062 -2.007812 16.636719 -2.320312 Z M 16.636719 -2.320312 "/></g></g></g><g fill="#004aad" fill-opacity="1"><g transform="translate(148.11409, 217.348266)"><g><path d="M 4.144531 -0.6875 C 6.292969 -0.425781 8.378906 -0.683594 10.484375 -1.472656 C 12.589844 -2.261719 14.664062 -3.308594 16.683594 -4.792969 C 18.628906 -6.179688 20.453125 -7.816406 22.257812 -9.625 C 24.0625 -11.433594 25.757812 -13.40625 27.257812 -15.53125 C 28.679688 -17.558594 30.007812 -19.660156 31.246094 -21.753906 C 32.402344 -23.832031 33.402344 -25.71875 34.230469 -27.585938 C 30.773438 -22.75 27.5 -19.261719 24.589844 -17.140625 C 21.679688 -15.015625 19.160156 -14 17.121094 -14.101562 C 15.003906 -14.105469 13.640625 -15.171875 12.839844 -17.363281 C 12.050781 -19.46875 12.121094 -22.476562 13.058594 -26.292969 C 13.953125 -29.753906 15.085938 -32.710938 16.371094 -35.164062 C 17.664062 -37.527344 19.011719 -39.457031 20.40625 -41.039062 C 21.71875 -42.523438 23 -43.5625 24.324219 -44.253906 C 25.652344 -44.945312 26.746094 -45.347656 27.691406 -45.550781 C 28.386719 -45.636719 29.015625 -45.539062 29.503906 -45.160156 C 29.902344 -44.765625 30.140625 -44.269531 30.140625 -43.5625 C 30.054688 -42.847656 29.8125 -41.9375 29.324219 -40.90625 C 28.832031 -39.875 27.996094 -38.800781 26.898438 -37.699219 C 26.507812 -37.296875 26.019531 -36.972656 25.539062 -36.558594 C 25.214844 -36.34375 24.898438 -36.039062 24.574219 -35.824219 C 24.25 -35.605469 24.019531 -35.316406 23.78125 -35.109375 C 23.238281 -34.511719 22.867188 -33.9375 22.671875 -33.386719 C 22.390625 -32.820312 22.550781 -32.222656 23.070312 -31.582031 L 22.90625 -31.476562 C 23.339844 -30.824219 23.992188 -30.550781 25.042969 -30.59375 C 26.097656 -30.636719 27.160156 -31.296875 28.410156 -32.59375 C 29.507812 -33.699219 30.390625 -35.132812 31.140625 -36.898438 C 31.902344 -38.578125 32.394531 -40.316406 32.699219 -42.117188 C 32.960938 -44.265625 32.824219 -46.097656 32.109375 -47.597656 C 31.398438 -49.09375 29.988281 -49.800781 27.96875 -49.730469 C 25.007812 -49.449219 22.128906 -48.480469 19.5 -46.921875 C 16.875 -45.363281 14.375 -43.464844 12.179688 -41.257812 C 9.910156 -38.949219 7.921875 -36.5 6.125 -33.898438 C 4.34375 -31.210938 2.972656 -28.75 1.839844 -26.492188 C 0.207031 -23.296875 -1.078125 -20.140625 -1.929688 -17.039062 C -2.867188 -13.925781 -3.140625 -11.160156 -2.753906 -8.738281 C -2.410156 -5.960938 -1.546875 -3.953125 -0.332031 -2.691406 C 0.882812 -1.429688 2.367188 -0.820312 4.144531 -0.6875 Z M 4.144531 -0.6875 "/></g></g></g><g fill="#004aad" fill-opacity="1"><g transform="translate(179.19381, 213.509658)"><g><path d="M -11.09375 -2.773438 L -13.378906 1.566406 L -0.53125 -0.0234375 L 37.269531 -72.207031 L 24.59375 -70.640625 C 24.375 -70.261719 24.09375 -69.699219 23.65625 -68.941406 C 23.222656 -68.179688 22.730469 -67.152344 22.167969 -66.023438 L 17.75 -57.546875 C 15.878906 -54.140625 13.953125 -50.464844 11.972656 -46.519531 L 5.464844 -34.257812 C 4.320312 -32.089844 3.253906 -30.019531 2.1875 -27.945312 C 1.121094 -25.875 0.046875 -23.890625 -0.945312 -21.917969 C -2.097656 -19.835938 -3.097656 -17.949219 -4.023438 -16.160156 C -5.023438 -14.273438 -5.875 -12.585938 -6.734375 -10.980469 C -7.582031 -9.289062 -8.363281 -7.78125 -9.082031 -6.457031 C -9.789062 -5.050781 -10.519531 -3.8125 -11.09375 -2.773438 Z M -11.09375 -2.773438 "/></g></g></g><g fill="#004aad" fill-opacity="1"><g transform="translate(199.942425, 210.947029)"><g><path d="M -9.429688 1.429688 L 3.332031 -0.148438 C 3.972656 -1.371094 4.613281 -2.597656 5.332031 -3.921875 C 5.964844 -5.230469 6.605469 -6.457031 7.324219 -7.78125 C 7.964844 -9.003906 8.609375 -10.230469 9.25 -11.453125 C 9.902344 -12.59375 10.546875 -13.820312 11.273438 -15.054688 C 12.570312 -17.417969 14.035156 -19.800781 15.503906 -22.1875 C 16.984375 -24.484375 18.539062 -26.882812 20.355469 -29.308594 C 21.421875 -30.675781 22.472656 -32.128906 23.617188 -33.589844 C 24.679688 -34.957031 25.832031 -36.332031 26.921875 -37.523438 C 28.019531 -38.628906 29.050781 -39.550781 30.015625 -40.285156 C 30.984375 -41.023438 31.820312 -41.390625 32.515625 -41.476562 C 32.957031 -41.441406 33.347656 -41.136719 33.769531 -40.574219 C 34.03125 -39.902344 33.8125 -38.816406 33.214844 -37.242188 C 32.472656 -35.390625 31.730469 -33.535156 31.058594 -31.863281 C 30.292969 -30.183594 29.53125 -28.503906 28.761719 -26.910156 C 27.910156 -25.21875 27.136719 -23.625 26.367188 -22.03125 C 25.605469 -20.351562 24.832031 -18.757812 24.144531 -17.171875 C 23.589844 -15.957031 23.066406 -14.484375 22.566406 -12.835938 C 22.0625 -11.1875 21.910156 -9.582031 21.996094 -8.179688 C 22.003906 -6.683594 22.5 -5.511719 23.410156 -4.566406 C 24.234375 -3.609375 25.761719 -3.359375 28.019531 -3.636719 C 29.929688 -3.871094 31.851562 -4.726562 33.765625 -6.375 C 35.675781 -8.019531 37.382812 -9.90625 39.058594 -12.050781 C 40.644531 -14.1875 41.960938 -16.375 43.003906 -18.621094 C 44.050781 -20.867188 44.703125 -22.707031 44.867188 -24.226562 C 44.574219 -23.75 44.355469 -23.371094 44.140625 -22.992188 C 43.835938 -22.601562 43.628906 -22.136719 43.410156 -21.757812 C 42.8125 -20.890625 42.117188 -20.097656 41.496094 -19.40625 C 40.878906 -18.710938 40.152344 -18.179688 39.414062 -17.738281 C 38.597656 -17.195312 37.835938 -16.925781 37.132812 -16.925781 C 36.351562 -16.828125 35.875 -17.125 35.625 -17.710938 C 35.386719 -18.207031 35.300781 -18.902344 35.453125 -19.804688 C 35.519531 -20.695312 35.835938 -21.703125 36.304688 -22.90625 C 36.699219 -24.011719 37.175781 -25.128906 37.667969 -26.160156 C 38.070312 -27.179688 38.710938 -28.402344 39.582031 -29.921875 C 39.941406 -30.582031 40.289062 -31.332031 40.722656 -32.089844 C 41.160156 -32.847656 41.507812 -33.597656 41.921875 -34.527344 C 42.695312 -36.121094 43.457031 -37.804688 44.109375 -39.648438 C 44.773438 -41.402344 45.179688 -43.128906 45.417969 -44.746094 C 45.585938 -46.261719 45.335938 -47.554688 44.839844 -48.726562 C 44.34375 -49.898438 43.28125 -50.648438 41.804688 -51.171875 C 40.351562 -51.523438 38.875 -51.339844 37.226562 -50.429688 C 35.574219 -49.523438 33.878906 -48.253906 32.132812 -46.71875 C 30.390625 -45.09375 28.597656 -43.195312 26.902344 -41.222656 C 25.121094 -39.242188 23.511719 -37.277344 22.054688 -35.511719 L 27.984375 -46.027344 C 28.917969 -47.027344 30.34375 -48.347656 32.101562 -49.796875 C 32.992188 -50.4375 33.875 -51.164062 34.828125 -51.988281 C 35.796875 -52.722656 36.753906 -53.546875 37.785156 -54.464844 C 39.785156 -56.125 41.847656 -57.964844 43.890625 -59.980469 C 45.933594 -61.996094 47.878906 -64.085938 49.640625 -66.242188 C 51.085938 -68.097656 52.355469 -69.929688 53.53125 -71.835938 C 54.621094 -73.734375 55.371094 -75.5 55.863281 -77.238281 C 56.277344 -78.875 56.34375 -80.46875 56.085938 -81.847656 C 55.742188 -83.214844 54.972656 -84.441406 53.605469 -85.507812 C 52.652344 -86.09375 51.535156 -86.574219 50.277344 -86.769531 C 49.019531 -86.96875 47.617188 -86.882812 46.164062 -86.527344 C 44.632812 -86.074219 43.222656 -85.371094 41.765625 -84.308594 C 40.3125 -83.25 39.074219 -81.863281 37.964844 -80.136719 C 34.363281 -74.316406 30.546875 -68.117188 26.585938 -61.632812 C 22.636719 -55.0625 18.546875 -48.210938 14.480469 -41.1875 C 10.335938 -34.066406 6.277344 -26.953125 2.230469 -19.753906 C -1.816406 -12.554688 -5.710938 -5.554688 -9.429688 1.429688 Z M 30.914062 -53 L 47.890625 -79.691406 C 48.414062 -80.460938 49.054688 -80.980469 49.726562 -81.238281 C 50.410156 -81.410156 50.941406 -81.386719 51.503906 -81.105469 C 51.894531 -80.800781 52.308594 -80.324219 52.566406 -79.648438 C 52.828125 -78.976562 52.847656 -78.097656 52.714844 -77.023438 C 52.496094 -75.9375 51.953125 -74.636719 51.246094 -73.230469 C 50.546875 -71.730469 49.429688 -70.09375 47.972656 -68.328125 C 46.753906 -66.769531 45.265625 -65.261719 43.699219 -63.660156 C 42.050781 -62.042969 40.472656 -60.527344 38.886719 -59.097656 C 37.214844 -57.65625 35.703125 -56.324219 34.25 -55.265625 C 32.792969 -54.203125 31.738281 -53.457031 30.914062 -53 Z M 30.914062 -53 "/></g></g></g><g fill="#004aad" fill-opacity="1"><g transform="translate(239.703745, 206.036169)"><g><path d="M 27.597656 -4.203125 L 27.28125 -3.898438 C 29.714844 -4.199219 32.058594 -5.195312 34.394531 -6.980469 C 36.652344 -8.667969 38.859375 -10.792969 40.847656 -13.242188 C 42.761719 -15.59375 44.46875 -18.183594 46.078125 -20.851562 C 47.6875 -23.519531 48.960938 -26.054688 49.917969 -28.289062 C 49.769531 -28.09375 49.605469 -27.984375 49.367188 -27.78125 C 49.125 -27.574219 48.898438 -27.28125 48.582031 -26.976562 C 47.886719 -26.1875 47.105469 -25.386719 46.234375 -24.574219 C 45.378906 -23.671875 44.433594 -22.761719 43.398438 -21.84375 C 41.195312 -19.71875 39.359375 -18.171875 37.707031 -17.261719 C 36.894531 -16.71875 36.210938 -16.546875 35.753906 -16.667969 C 35.296875 -16.789062 35.148438 -17.296875 35.300781 -18.199219 C 35.367188 -19.085938 35.976562 -20.574219 36.976562 -22.460938 L 52.699219 -52.871094 L 40.460938 -51.359375 L 35.890625 -42.6875 C 35.675781 -44.421875 35.242188 -45.78125 34.484375 -46.917969 C 33.738281 -47.972656 32.851562 -48.746094 31.722656 -49.3125 C 30.519531 -49.777344 29.171875 -49.964844 27.761719 -49.96875 C 26.363281 -49.882812 24.820312 -49.515625 23.300781 -48.976562 C 22.128906 -48.480469 20.804688 -47.785156 19.4375 -46.734375 C 18.066406 -45.683594 16.710938 -44.546875 15.296875 -43.140625 C 13.882812 -41.730469 12.40625 -40.136719 10.949219 -38.371094 C 9.492188 -36.605469 8.125 -34.851562 6.777344 -32.921875 C 5.121094 -30.601562 3.644531 -28.304688 2.347656 -25.9375 C 0.976562 -23.476562 -0.140625 -21.136719 -1.089844 -18.816406 C -1.765625 -17.144531 -2.320312 -15.226562 -2.585938 -13.078125 C -2.847656 -10.929688 -2.871094 -8.988281 -2.472656 -7.1875 C -2.152344 -5.289062 -1.4375 -3.789062 -0.410156 -2.59375 C 0.621094 -1.398438 2.183594 -0.886719 4.351562 -1.15625 C 7.304688 -1.519531 10.355469 -2.511719 13.308594 -4.289062 C 14.710938 -5.078125 16.003906 -6.03125 17.195312 -7.058594 C 18.390625 -8.089844 19.390625 -9.269531 20.121094 -10.507812 C 20.195312 -8.488281 20.917969 -6.902344 22.304688 -5.664062 C 23.605469 -4.414062 25.339844 -3.921875 27.597656 -4.203125 Z M 11.738281 -13.4375 C 10.902344 -13.773438 10.296875 -14.40625 9.90625 -15.414062 C 9.519531 -16.425781 9.53125 -17.746094 9.847656 -19.460938 C 10.089844 -21.078125 10.730469 -23.007812 11.84375 -25.4375 C 12.964844 -27.777344 14.5625 -30.53125 16.640625 -33.699219 C 17.53125 -35.042969 18.421875 -36.386719 19.488281 -37.75 C 20.464844 -39.105469 21.554688 -40.296875 22.640625 -41.492188 C 23.652344 -42.585938 24.769531 -43.515625 26.007812 -44.199219 C 27.160156 -44.867188 28.441406 -45.203125 29.828125 -45.375 C 30.621094 -45.386719 31.261719 -45.199219 31.75 -44.820312 C 32.160156 -44.339844 32.496094 -43.765625 32.765625 -43.003906 C 32.949219 -42.234375 33.054688 -41.367188 33.011719 -40.304688 C 32.964844 -39.238281 32.921875 -38.175781 32.714844 -37.003906 L 32.800781 -37.015625 L 25.316406 -23.398438 C 24.75 -22.273438 23.933594 -21.023438 23.042969 -19.679688 C 22.0625 -18.324219 20.988281 -17.046875 19.804688 -15.929688 C 18.542969 -14.71875 17.238281 -13.851562 15.894531 -13.332031 C 14.472656 -12.71875 13.0625 -12.71875 11.738281 -13.4375 Z M 11.738281 -13.4375 "/></g></g></g><g fill="#004aad" fill-opacity="1"><g transform="translate(284.587203, 200.492682)"><g><path d="M 1.878906 -0.496094 C 3.679688 -0.191406 5.773438 -0.359375 8.140625 -1.179688 C 10.507812 -2.003906 12.894531 -3.355469 15.394531 -5.25 C 17.804688 -7.136719 20.066406 -9.53125 22.261719 -12.445312 C 24.457031 -15.359375 26.316406 -18.851562 27.777344 -22.734375 C 27.246094 -22.050781 26.710938 -21.367188 26.167969 -20.773438 C 25.625 -20.175781 25.082031 -19.582031 24.527344 -19.070312 C 23.265625 -17.859375 21.984375 -16.816406 20.683594 -15.953125 C 19.378906 -15.085938 18.226562 -14.414062 17.054688 -13.917969 C 15.804688 -13.324219 14.699219 -13.007812 13.722656 -13.066406 C 12.757812 -13.035156 12.183594 -13.402344 11.921875 -14.078125 C 11.578125 -14.738281 11.480469 -15.519531 11.699219 -16.605469 C 11.929688 -17.601562 12.308594 -18.796875 12.855469 -20.097656 C 13.324219 -21.300781 13.878906 -22.515625 14.519531 -23.742188 C 15.085938 -24.867188 15.738281 -26.007812 16.316406 -27.046875 C 16.902344 -28 17.335938 -28.761719 17.542969 -29.226562 L 26.671875 -46.660156 L 35.355469 -47.730469 L 37.5625 -50.5625 L 28.183594 -49.402344 L 31.894531 -56.472656 L 42.601562 -76.128906 C 41.539062 -76.171875 40.769531 -76.695312 40.3125 -77.519531 C 39.773438 -78.335938 39.308594 -79.246094 38.996094 -80.355469 C 38.605469 -81.363281 38.214844 -82.371094 37.738281 -83.371094 C 37.265625 -84.371094 36.648438 -85.085938 35.714844 -85.5 C 35.574219 -85.21875 35.441406 -84.851562 35.222656 -84.472656 C 34.921875 -84.082031 34.636719 -83.515625 34.355469 -82.953125 L 31.851562 -78.238281 C 31.265625 -77.285156 30.773438 -76.253906 30.285156 -75.222656 C 29.707031 -74.183594 29.132812 -73.140625 28.554688 -72.101562 C 27.902344 -70.960938 27.324219 -69.921875 26.761719 -68.792969 C 26.195312 -67.667969 25.542969 -66.527344 24.976562 -65.402344 C 22.101562 -60.109375 18.949219 -54.253906 15.511719 -47.835938 L 8.566406 -46.980469 L 6.359375 -44.152344 L 13.996094 -45.09375 L 4.628906 -27.453125 L 2.171875 -23.097656 C 1.746094 -22.25 1.324219 -21.40625 0.886719 -20.648438 C 0.453125 -19.886719 0.0273438 -19.042969 -0.320312 -18.292969 C -1.167969 -16.601562 -1.84375 -14.933594 -2.347656 -13.285156 C -2.933594 -11.625 -3.273438 -10.085938 -3.339844 -8.488281 C -3.5625 -5.996094 -3.152344 -4.105469 -2.199219 -2.8125 C -1.246094 -1.519531 0.0859375 -0.714844 1.878906 -0.496094 Z M 1.878906 -0.496094 "/></g></g></g></svg>