<svg xmlns="http://www.w3.org/2000/svg" xmlns:xlink="http://www.w3.org/1999/xlink" width="500" zoomAndPan="magnify" viewBox="0 0 375 374.999991" height="500" preserveAspectRatio="xMidYMid meet" version="1.0"><defs><clipPath id="a6ff93a9f5"><path d="M 0 14.871094 L 346 14.871094 L 346 359.871094 L 0 359.871094 Z M 0 14.871094 " clip-rule="nonzero"/></clipPath><clipPath id="0b996fcf21"><path d="M 29 14.871094 L 375 14.871094 L 375 359.871094 L 29 359.871094 Z M 29 14.871094 " clip-rule="nonzero"/></clipPath></defs><g clip-path="url(#a6ff93a9f5)"><path fill="#720101" d="M 278.773438 359.847656 L 0.046875 81.316406 L 66.539062 14.871094 L 96.230469 14.871094 L 345.269531 293.402344 L 308.464844 359.847656 Z M 278.773438 359.847656 " fill-opacity="1" fill-rule="nonzero"/><path fill="#720101" d="M 66.539062 359.847656 L 0.046875 293.402344 L 278.773438 14.871094 L 308.464844 14.871094 L 345.269531 81.316406 L 96.230469 359.847656 Z M 66.539062 359.847656 " fill-opacity="1" fill-rule="nonzero"/></g><g clip-path="url(#0b996fcf21)"><path fill="#b20000" d="M 29.734375 81.3125 L 96.230469 14.867188 L 374.957031 293.398438 L 308.464844 359.84375 Z M 29.734375 81.3125 " fill-opacity="1" fill-rule="nonzero"/><path fill="#b20000" d="M 29.734375 293.402344 L 308.464844 14.871094 L 374.957031 81.316406 L 96.230469 359.847656 Z M 29.734375 293.402344 " fill-opacity="1" fill-rule="nonzero"/></g></svg>