<svg xmlns="http://www.w3.org/2000/svg" xmlns:xlink="http://www.w3.org/1999/xlink" width="500" zoomAndPan="magnify" viewBox="0 0 375 374.999991" height="500" preserveAspectRatio="xMidYMid meet" version="1.0"><path fill="#040606" d="M 219.046875 3.097656 C 173.8125 24.5 108.617188 42.90625 44.632812 52.324219 C 38.597656 53.21875 33.839844 57.621094 32.472656 63.5625 C 31.109375 69.492188 33.480469 75.539062 38.511719 78.96875 C 65.265625 97.164062 91.296875 117.519531 114.566406 138.199219 C 137.847656 158.875 158.34375 179.863281 174.019531 199.347656 C 178.171875 204.5 185.058594 206.238281 191.164062 203.675781 C 197.246094 201.089844 200.808594 194.945312 200.011719 188.375 L 194.511719 143.367188 C 202.347656 145.613281 209.734375 148.605469 216.671875 152.675781 C 244.78125 169.15625 261.527344 193.050781 261.125 226.28125 C 260.769531 255.59375 245.996094 278.25 222.683594 294.902344 C 194.96875 314.695312 159.84375 320.855469 126.777344 312.703125 C 92.417969 304.238281 63.25 286.480469 39.210938 260.277344 C 39.171875 260.230469 39.125 260.183594 39.089844 260.140625 C 37.414062 258.3125 34.558594 260.511719 35.859375 262.617188 C 40.484375 270.082031 45.371094 277.34375 50.648438 284.359375 C 66.644531 305.59375 84.910156 324.5 107.15625 339.203125 C 161.859375 375.355469 231.78125 369.929688 280.929688 329.328125 C 310.03125 305.28125 327.078125 273.960938 332.078125 236.5625 C 337.472656 196.203125 325.410156 160.390625 301.175781 128.457031 C 280.945312 101.804688 254.433594 83.273438 223.53125 70.839844 C 219.289062 69.132812 214.992188 67.601562 210.644531 66.1875 L 237.636719 24.300781 C 241.230469 18.738281 240.707031 11.660156 236.34375 6.683594 C 231.984375 1.695312 225.015625 0.273438 219.046875 3.097656 " fill-opacity="1" fill-rule="nonzero"/></svg>