<svg xmlns="http://www.w3.org/2000/svg" xmlns:xlink="http://www.w3.org/1999/xlink" width="500" zoomAndPan="magnify" viewBox="0 0 375 374.999991" height="500" preserveAspectRatio="xMidYMid meet" version="1.0"><defs><clipPath id="31c8599b7f"><path d="M 32 235 L 343.117188 235 L 343.117188 365 L 32 365 Z M 32 235 " clip-rule="nonzero"/></clipPath></defs><path fill="#f4f3f3" d="M 188.0625 10.777344 C 178.621094 10.777344 170.960938 18.4375 170.960938 27.894531 L 170.960938 211.535156 L 130.890625 171.421875 C 114.78125 155.789062 91.050781 179.441406 106.707031 195.628906 C 106.707031 195.628906 175.96875 264.964844 175.96875 264.964844 C 182.4375 271.683594 193.679688 271.464844 200.152344 264.964844 C 200.152344 264.964844 269.417969 195.628906 269.417969 195.628906 C 285.019531 179.46875 261.417969 155.769531 245.234375 171.425781 C 245.234375 171.421875 205.164062 211.535156 205.164062 211.535156 L 205.164062 27.894531 C 205.164062 18.4375 197.503906 10.777344 188.0625 10.777344 Z M 188.0625 10.777344 " fill-opacity="1" fill-rule="nonzero"/><g clip-path="url(#31c8599b7f)"><path fill="#f4f3f3" d="M 49.535156 235.742188 C 40.09375 235.742188 32.433594 243.40625 32.433594 252.863281 L 32.433594 278.117188 C 32.433594 325.785156 71.179688 364.570312 118.796875 364.570312 L 257.324219 364.570312 C 304.945312 364.570312 343.691406 325.785156 343.691406 278.117188 L 343.691406 252.863281 C 343.691406 243.40625 336.03125 235.742188 326.589844 235.742188 C 317.148438 235.742188 309.488281 243.40625 309.488281 252.863281 L 309.488281 278.117188 C 309.488281 306.910156 286.085938 330.332031 257.324219 330.332031 L 118.796875 330.332031 C 90.039062 330.332031 66.636719 306.910156 66.636719 278.117188 L 66.636719 252.863281 C 66.636719 243.40625 58.976562 235.742188 49.535156 235.742188 Z M 49.535156 235.742188 " fill-opacity="1" fill-rule="nonzero"/></g></svg>