<svg xmlns="http://www.w3.org/2000/svg" xmlns:xlink="http://www.w3.org/1999/xlink" width="500" zoomAndPan="magnify" viewBox="0 0 375 374.999991" height="500" preserveAspectRatio="xMidYMid meet" version="1.0"><defs><clipPath id="5fb83a79e9"><path d="M 27.210938 0 L 216 0 L 216 322 L 27.210938 322 Z M 27.210938 0 " clip-rule="nonzero"/></clipPath></defs><g clip-path="url(#5fb83a79e9)"><path fill="#004aad" d="M 153.359375 0 C 158.101562 1.085938 162.941406 1.878906 167.679688 3.164062 C 187.636719 8.898438 203.441406 20.367188 215.691406 37.46875 C 177.953125 49.433594 152.269531 73.65625 141.601562 111.917969 C 130.738281 151.066406 142.886719 184.089844 171.238281 212.167969 C 131.625 237.871094 105.84375 271.488281 108.214844 321.511719 C 106.832031 321.613281 105.746094 321.808594 104.65625 321.808594 C 91.914062 321.808594 79.171875 321.910156 66.332031 321.808594 C 46.375 321.710938 31.460938 308.957031 28.003906 289.28125 C 27.902344 288.394531 27.605469 287.601562 27.3125 286.8125 L 27.3125 253.394531 C 27.507812 252.40625 27.902344 251.417969 28.003906 250.429688 C 29.089844 238.664062 32.84375 227.6875 38.769531 217.605469 C 53.6875 192.394531 75.8125 175.980469 102.582031 165.304688 C 104.363281 164.613281 106.140625 163.921875 107.128906 163.523438 C 98.632812 156.40625 89.542969 149.882812 81.742188 142.070312 C 67.023438 127.242188 57.636719 109.246094 57.242188 87.695312 C 56.453125 48.34375 83.714844 12.753906 121.847656 2.964844 C 126.191406 1.878906 130.636719 0.988281 135.082031 0 Z M 153.359375 0 " fill-opacity="1" fill-rule="nonzero"/></g><path fill="#004aad" d="M 207.292969 216.320312 C 201.464844 212.066406 195.441406 208.210938 190.007812 203.566406 C 173.804688 189.824219 161.558594 173.214844 158 151.761719 C 153.949219 127.339844 160.175781 105.09375 175.78125 86.113281 C 198.105469 58.824219 227.445312 47.753906 261.921875 55.265625 C 298.273438 63.175781 320.796875 86.804688 328.894531 123.1875 C 335.117188 150.96875 325.933594 174.695312 306.769531 194.667969 C 299.558594 202.082031 290.667969 207.914062 282.46875 214.441406 C 281.675781 215.035156 280.886719 215.527344 279.601562 216.320312 C 284.246094 218.296875 288.59375 219.878906 292.742188 221.855469 C 318.027344 233.71875 338.675781 250.625 351.617188 275.9375 C 357.046875 286.515625 360.109375 297.785156 359.714844 309.847656 C 359.417969 319.4375 359.617188 329.027344 359.617188 338.714844 C 359.617188 355.820312 346.972656 371.144531 330.179688 374.308594 C 327.609375 374.800781 324.945312 375 322.277344 375 L 164.914062 375 C 144.960938 375 128.070312 359.675781 127.476562 339.703125 C 127.082031 325.46875 126.785156 311.035156 128.859375 296.996094 C 132.121094 275.144531 144.863281 258.042969 161.0625 243.507812 C 173.707031 232.136719 188.226562 223.832031 204.132812 217.902344 C 205.121094 217.507812 206.007812 217.210938 206.898438 216.8125 C 207.195312 216.714844 207.292969 216.417969 207.292969 216.320312 Z M 207.292969 216.320312 " fill-opacity="1" fill-rule="nonzero"/></svg>